<?xml version="1.0" standalone="no"?>
<!DOCTYPE svg PUBLIC "-//W3C//DTD SVG 1.1//EN" "http://www.w3.org/Graphics/SVG/1.1/DTD/svg11.dtd" >
<!--
2013-9-30: Created.
-->
<svg>
<metadata>
Created by iconfont
</metadata>
<defs>

<font id="iconfont" horiz-adv-x="1024" >
  <font-face
    font-family="iconfont"
    font-weight="500"
    font-stretch="normal"
    units-per-em="1024"
    ascent="896"
    descent="-128"
  />
    <missing-glyph />
    
    <glyph glyph-name="x" unicode="x" horiz-adv-x="1001"
d="M281 543q-27 -1 -53 -1h-83q-18 0 -36.5 -6t-32.5 -18.5t-23 -32t-9 -45.5v-76h912v41q0 16 -0.5 30t-0.5 18q0 13 -5 29t-17 29.5t-31.5 22.5t-49.5 9h-133v-97h-438v97zM955 310v-52q0 -23 0.5 -52t0.5 -58t-10.5 -47.5t-26 -30t-33 -16t-31.5 -4.5q-14 -1 -29.5 -0.5
t-29.5 0.5h-32l-45 128h-439l-44 -128h-29h-34q-20 0 -45 1q-25 0 -41 9.5t-25.5 23t-13.5 29.5t-4 30v167h911zM163 247q-12 0 -21 -8.5t-9 -21.5t9 -21.5t21 -8.5q13 0 22 8.5t9 21.5t-9 21.5t-22 8.5zM316 123q-8 -26 -14 -48q-5 -19 -10.5 -37t-7.5 -25t-3 -15t1 -14.5
t9.5 -10.5t21.5 -4h37h67h81h80h64h36q23 0 34 12t2 38q-5 13 -9.5 30.5t-9.5 34.5q-5 19 -11 39h-368zM336 498v228q0 11 2.5 23t10 21.5t20.5 15.5t34 6h188q31 0 51.5 -14.5t20.5 -52.5v-227h-327z" />
    

    
    <glyph glyph-name="gouwuche" unicode="&#58880;" d="M347.136 112.64q19.456 0 36.864-7.168t30.72-19.968 20.48-30.208 7.168-36.864-7.168-36.864-20.48-30.208-30.72-20.48-36.864-7.68q-20.48 0-37.376 7.68t-30.208 20.48-20.48 30.208-7.168 36.864 7.168 36.864 20.48 30.208 30.208 19.968 37.376 7.168zM773.12 110.592q19.456 0 37.376-7.168t30.72-19.968 20.48-30.208 7.68-36.864-7.68-36.864-20.48-30.208-30.72-20.48-37.376-7.68-36.864 7.68-30.208 20.48-20.48 30.208-7.68 36.864 7.68 36.864 20.48 30.208 30.208 19.968 36.864 7.168zM945.152 692.224q28.672 0 44.544-7.68t22.528-18.944 6.144-24.064-3.584-22.016-12.8-37.888-22.016-62.976-24.064-68.096-17.92-53.248q-13.312-40.96-33.792-56.832t-50.176-15.872l-34.816 0-66.56 0-87.04 0-95.232 0-253.952 0 15.36-92.16 516.096 0q49.152 0 49.152-41.984 0-20.48-9.728-35.328t-38.4-14.848l-49.152 0-95.232 0-117.76 0-119.808 0-98.304 0-56.32 0q-20.48 0-34.304 9.216t-23.04 24.064-14.848 32.256-8.704 32.768q-1.024 6.144-5.632 29.696t-11.264 58.88-14.848 78.848-16.384 87.552q-19.456 103.424-44.032 230.4l-76.8 0q-15.36 0-25.6 7.68t-16.896 18.432-9.216 23.04-2.56 22.528q0 20.48 13.824 33.792t37.376 13.312l22.528 0 20.48 0 25.6 0 34.816 0q20.48 0 32.768-6.144t19.456-15.36 10.24-19.456 5.12-17.408q2.048-8.192 4.096-23.04t4.096-30.208q3.072-18.432 6.144-38.912l700.416 0z"  horiz-adv-x="1024" />

    
    <glyph glyph-name="fangdajing" unicode="&#58932;" d="M850.453-0.653l0.105 0.223-197.89 193.493c38.961 45.944 61.363 103.043 63.198 161.203 3.664 70.834-24.038 144.003-74.073 195.682-42.739 45.105-102.838 75.421-164.821 83.209-12.031 1.639-24.352 2.458-36.625 2.458-61.344 0-121.126-19.942-168.322-56.113-54.705-40.781-92.468-101.996-103.616-167.925-11.054-61.446 0.911-127.372 32.811-180.82 21.819-37.152 52.888-69.073 89.828-92.298 33.909-21.453 72.924-35.474 112.775-40.485 11.958-1.62 24.219-2.439 36.445-2.439 56.586 0 112.572 17.3 158.132 48.773l197.642-193.343 3.655-3.368 0.105 0.091c6.515-5.235 14.768-8.14 23.319-8.14 20.202 0 36.637 16.127 36.637 35.947 0 8.787-3.358 17.279-9.308 23.853M649.856 263.257c-32.378-64.734-97.46-112.073-169.899-123.548-33.909-5.773-69.646-3.986-102.941 5.139-64.972 17.433-120.583 63.58-148.808 123.528-32.677 66.559-28.602 150.391 10.387 213.6 34.702 58.404 95.873 99.427 163.56 109.707l4.802 0.71c2.525 0.409 5.069 0.799 7.555 1.082 8.369 0.858 16.882 1.286 25.282 1.286 34.569 0 68.716-7.283 98.811-21.085 55.059-24.691 98.955-70.579 120.409-125.929 23.529-59.109 20.125-128.061-9.157-184.488z"  horiz-adv-x="1024" />

    
    <glyph glyph-name="iconfontxiajiantou" unicode="&#58917;" d="M707.6399 427.4616 527.1568 205.1813 346.6738 427.4616Z"  horiz-adv-x="1024" />

    
    <glyph glyph-name="gouwuche1" unicode="&#59081;" d="M753.429-27.004c-43.1 0-78.042-33.971-78.042-77.377 0-43.431 34.942-78.61 78.042-78.61 43.097 0 78.041 35.18 78.041 78.61C831.47-60.974 796.526-27.004 753.429-27.004zM328.326-27.004c-43.123 0-75.671-32.76-75.671-76.168 0-43.429 32.549-78.61 75.671-78.61 43.099 0 78.041 35.182 78.041 78.61C406.367-59.763 371.425-27.004 328.326-27.004zM1022.804 282.058l-0.829 268.522c0 0-3.889 80.815-73.537 80.815L210.931 630.4l-16.262 39.637c0 0-16.453 117.963-95.727 117.963 0 0-95.75 0-95.75-116.185l80.294 0.118c0 0 98.333-565.8 98.333-582.846 0-21.383 17.165-77.377 38.405-77.377l725.369 0c21.218 0 38.404 36.649 38.404 58.009 0 21.384-17.187 58.058-38.404 58.058L273.067 127.777l-19.084 77.165 693.651 3.058C947.634 207.999 1022.804 207.098 1022.804 282.058zM330.697 321.245c0-21.36-17.187-38.689-38.405-38.689l-1.208 0c-21.217 0-38.428 17.329-38.428 38.689l0 38.689c0 21.383 17.211 38.712 38.428 38.712l1.208 0c21.218 0 38.405-17.33 38.405-38.712L330.697 321.245zM330.697 476.024c0-21.36-17.187-38.688-38.405-38.688L253.84 437.336c-21.193 0-38.404 17.329-38.404 38.688l0 38.712c0 21.36 17.211 38.689 38.404 38.689l38.452 0c21.218 0 38.405-17.329 38.405-38.689L330.697 476.024zM484.432 321.245c0-21.36-17.211-38.689-38.428-38.689l-38.452 0c-21.193 0-38.404 17.329-38.404 38.689l0 38.689c0 21.383 17.211 38.712 38.404 38.712l38.452 0c21.217 0 38.428-17.33 38.428-38.712L484.432 321.245zM484.432 476.024c0-21.36-17.211-38.688-38.428-38.688l-38.452 0c-21.193 0-38.404 17.329-38.404 38.688l0 38.712c0 21.36 17.211 38.689 38.404 38.689l38.452 0c21.217 0 38.428-17.329 38.428-38.689L484.432 476.024zM638.145 321.245c0-21.36-17.212-38.689-38.427-38.689l-38.43 0c-21.217 0-38.428 17.329-38.428 38.689l0 38.689c0 21.383 17.211 38.712 38.428 38.712l38.43 0c21.215 0 38.427-17.33 38.427-38.712L638.145 321.245zM638.145 476.024c0-21.36-17.212-38.688-38.427-38.688l-38.43 0c-21.217 0-38.428 17.329-38.428 38.688l0 38.712c0 21.36 17.211 38.689 38.428 38.689l38.43 0c21.215 0 38.427-17.329 38.427-38.689L638.145 476.024zM791.858 321.245c0-21.36-17.212-38.689-38.429-38.689l-38.428 0c-21.217 0-38.429 17.329-38.429 38.689l0 38.689c0 21.383 17.212 38.712 38.429 38.712l38.428 0c21.217 0 38.429-17.33 38.429-38.712L791.858 321.245zM791.858 476.024c0-21.36-17.212-38.688-38.429-38.688l-38.428 0c-21.217 0-38.429 17.329-38.429 38.688l0 38.712c0 21.36 17.212 38.689 38.429 38.689l38.428 0c21.217 0 38.429-17.329 38.429-38.689L791.858 476.024zM945.571 321.245c0-21.36-17.211-38.689-38.43-38.689l-38.428 0c-21.218 0-38.429 17.329-38.429 38.689l0 38.689c0 21.383 17.211 38.712 38.429 38.712l38.428 0c21.219 0 38.43-17.33 38.43-38.712L945.571 321.245zM945.571 476.024c0-21.36-17.211-38.688-38.43-38.688l-38.428 0c-21.218 0-38.429 17.329-38.429 38.688l0 38.712c0 21.36 17.211 38.689 38.429 38.689l38.428 0c21.219 0 38.43-17.329 38.43-38.689L945.571 476.024z"  horiz-adv-x="1029" />

    
    <glyph glyph-name="iconfontdanxuananniuweixuanzhong" unicode="&#58930;" d="M880.484 276c0-203.5-164.975-368.469-368.484-368.469s-368.484 164.969-368.484 368.469 164.975 368.469 368.484 368.469 368.484-164.969 368.484-368.469zM511.999 560.152c-156.939 0-284.163-127.218-284.163-284.152 0-156.933 127.224-284.152 284.163-284.152s284.163 127.217 284.163 284.152c0 156.932-127.224 284.152-284.163 284.152z"  horiz-adv-x="1024" />

    
    <glyph glyph-name="fangdajing1" unicode="&#58913;" d="M852.562443 124.238974c38.652322 62.999846 60.310597 148.7263 60.310597 228.055043 0 228.906433-185.561229 414.471756-414.467663 414.471756-228.903364 0-414.468686-185.565323-414.468686-414.471756 0-228.903364 185.565323-414.468686 414.468686-414.468686 74.789357 0 144.949276 19.808138 205.526957 54.466496 30.970362 17.71957 173.251879-155.227364 245.517763-110.305245C1035.535731-64.500645 834.751798 95.21187 852.562443 124.238974zM495.753991 38.059196c-176.040389 0-318.750671 142.707213-318.750671 318.750671 0 176.040389 142.710282 318.750671 318.750671 318.750671s318.750671-142.710282 318.750671-318.750671C814.504662 180.766408 671.794379 38.059196 495.753991 38.059196z"  horiz-adv-x="1024" />

    
    <glyph glyph-name="iconjia" unicode="&#58911;" d="M902.947 228.973h-332.293v-332.346c0-32.387-26.267-58.628-58.655-58.628-32.387 0-58.654 26.241-58.654 58.628v332.346h-332.295c-32.414 0-58.654 26.241-58.654 58.628 0 32.375 26.243 58.628 58.654 58.628h332.293v332.346c0 32.375 26.267 58.628 58.654 58.628 32.388 0 58.655-26.254 58.655-58.628v-332.347h332.293c32.414 0 58.655-26.252 58.655-58.626-0.001-32.387-26.241-58.626-58.655-58.626z"  horiz-adv-x="1024" />

    
    <glyph glyph-name="iconfontcolor39" unicode="&#59011;" d="M1.984 666.512c0 0-44.976-228.992 293.6-567.568 2.464-2.448 4.832-4.672 7.264-7.088 2.432-2.432 4.656-4.816 7.104-7.28 338.576-338.576 567.568-293.6 567.568-293.6 14.016 1.872 43.472 10.272 53.44 20.272 0 0 52.096 42.816 84.016 95.568 31.936 52.736-28.416 132.304-63.136 167.008-70.048 70.048-134.464 83.712-162.832 64.24-12.752-8.752-63.424-63.36-63.424-63.36-9.984-10-29.744-18.304-43.872-18.48 0 0-88.544-0.896-253.248 161.248C266.32 382.16 267.2 470.704 267.2 470.704c0.192 14.112 8.48 33.888 18.48 43.872 0 0 62.816 62.768 63.36 63.424 23.824 29.824-15.632 103.968-64.24 162.832-31.248 37.84-56.56 59.984-103.904 69.008C117.712 821.872 4.24 737.712 1.984 666.512z"  horiz-adv-x="1025" />

    
    <glyph glyph-name="xin" unicode="&#58914;" d="M705.403848 747.53171c-76.854389 0-148.311861-38.554084-195.34506-102.123912-47.007617 63.587224-118.448716 102.123912-195.344037 102.123912-138.54031 0-251.251348-123.228579-251.251348-274.711665 0-90.369194 40.368406-153.767106 72.820516-204.702172 94.311992-147.95268 331.443761-332.071048 341.487511-339.834872 9.676383-7.479345 20.989033-11.222599 32.275077-11.222599 11.31265 0 22.607904 3.744277 32.270984 11.222599 10.057053 7.763824 247.205195 191.882192 341.488535 339.834872 32.466436 50.939159 72.849168 114.332978 72.849168 204.702172C956.655196 624.30313 843.939041 747.53171 705.403848 747.53171L705.403848 747.53171zM837.929164 303.082198c-89.77056-140.875494-327.883679-324.878229-327.883679-324.878229s-238.086513 184.002734-327.887772 324.878229c-33.120328 52.005444-62.774719 101.438297-62.774719 169.736822 0 117.939109 87.443561 213.58447 195.331757 213.58447 79.730902 0 148.175761-52.308343 178.538279-127.194914l0 0.37146 0.080841 0c2.26253-7.806803 8.857738-13.501502 16.711614-13.501502 7.880481 0 14.474666 5.694699 16.720823 13.501502l0.230244 0c30.435173 74.66349 98.785887 126.823454 178.406273 126.823454 107.86159 0 195.331757-95.64536 195.331757-213.58447C900.734582 404.520495 871.075075 355.088666 837.929164 303.082198L837.929164 303.082198zM837.929164 303.082198"  horiz-adv-x="1024" />

    
    <glyph glyph-name="touxiang" unicode="&#58915;" d="M1024 256.055467c0 67.3152-12.3072 132.872533-36.580267 194.848l-0.471467 1.205333-0.5376 1.179733-3.784533 8.3136c-10.391467 22.869333-21.730133 47.818667-35.818667 72.125867 17.9008 25.122133 27.703467 55.3088 27.703467 87.082667 0 83.086933-67.592533 150.6816-150.6752 150.6816-37.824 0-73.1456-13.806933-100.309333-38.222933C657.408 763.933867 585.032533 780 512.004267 780c-74.478933 0-148.162133-16.699733-215.336533-48.561067-27.4688 25.348267-63.8528 40.055467-102.176 40.055467-83.082667 0-150.6752-67.594667-150.6752-150.6816 0-33.640533 11.3216-65.924267 31.434667-91.991467-16.264533-28.6848-30.752-59.1296-38.312533-77.058133l-0.2432-0.576-0.228267-0.5824C12.2688 388.708267 0 323.253333 0 256.055467c0-73.687467 16.942933-136.7296 51.7952-192.7296 33.813333-54.3296 81.890133-96.736 121.405867-128.1408l1.640533-1.576533c2.624-2.5216 7.5072-7.214933 39.428267-24.360533 16.936533-9.096533 44.078933-22.850133 77.1968-36.7104 84.834133-35.502933 163.355733-53.504 233.384533-53.504 1.691733 0 3.389867 0.010667 5.079467 0.032 70.683733 0.9024 146.602667 20.823467 225.6512 59.210667 58.077867 28.202667 97.7664 57.009067 102.653867 61.137067l31.4432 26.557867-0.5568 0.878933C962.581333 32.482133 1024 116.360533 1024 256.055467zM827.2384-23.6672l0.541867-0.855467c-2.734933-2.3104-145.290667-107.255467-298.453333-109.211733-1.489067-0.0192-2.986667-0.027733-4.475733-0.027733-153.079467 0-314.9248 99.1168-317.303467 101.403733l0.2304 0.379733c-94.9888 74.638933-160.576 150.001067-160.576 288.034133 0 62.688 11.7952 122.542933 33.226667 177.3632 9.821867 23.2896 32.9216 70.734933 54.702933 102.709333-26.645333 18.72-44.113067 49.640533-44.113067 84.6848 0 57.149867 46.333867 103.4816 103.4752 103.4816 38.602667 0 72.196267-21.1712 89.988267-52.507733 67.255467 38.811733 144.8512 61.013333 227.524267 61.013333 80.9472 0 157.047467-21.256533 223.332267-58.570667 18.122667 29.9648 50.9248 50.065067 88.4992 50.065067 57.152 0 103.4752-46.331733 103.4752-103.4816 0-33.2928-15.784533-62.833067-40.200533-81.757867 23.982933-32.509867 40.448-70.496 56.360533-105.3632 21.499733-54.897067 33.329067-114.845867 33.329067-177.636267C976.8 123.424 916.238933 48.0448 827.2384-23.6672zM695.741867 417.493333m-52.258133 0a24.496 24.496 0 1 0 104.516267 0 24.496 24.496 0 1 0-104.516267 0ZM341.742933 417.493333m-52.258133 0a24.496 24.496 0 1 0 104.516267 0 24.496 24.496 0 1 0-104.516267 0ZM692.3712 142.722133c-4.341333 0-8.253867-1.821867-11.0208-4.7424-48.785067-26.144-108.420267-13.717333-143.099733 27.639467 0.162133 0.2816-1.787733 2.180267-1.787733 2.180267-1.408 1.762133-2.762667 3.566933-4.0768 5.4336 36.418133 5.629867 64.315733 37.250133 64.315733 75.4176 0 42.1376-34.0096 59.272533-75.963733 59.272533-41.943467 0-75.9552-17.134933-75.9552-59.272533 0-36.917333 26.0928-67.712 60.763733-74.779733-1.450667-2.0864-2.958933-4.113067-4.526933-6.071467 0 0-1.949867-1.898667-1.7792-2.180267-35.509333-42.3424-97.1648-54.357333-146.56-25.7088l-0.6784-1.181867c-2.7008 2.481067-6.304 3.9936-10.2592 3.9936-8.379733 0-15.172267-6.792533-15.172267-15.172267 0-6.813867 4.490667-12.576 10.673067-14.493867l-0.5568-0.970667c60.797867-35.264 136.1408-22.244267 182.0608 27.208533 45.911467-49.4528 121.262933-62.472533 182.052267-27.208533l-1.213867 2.114133c4.738133 2.5664 7.957333 7.581867 7.957333 13.3504C707.543467 135.9296 700.750933 142.722133 692.3712 142.722133z"  horiz-adv-x="1024" />

    
    <glyph glyph-name="shouji" unicode="&#59023;" d="M291.219129 630.041832c0 30.725792 24.907273 55.633065 55.632041 55.633065l330.297658 0c30.724769 0 55.632041-24.907273 55.632041-55.633065l0-660.08264c0-30.725792-24.907273-55.633065-55.632041-55.633065L346.851171-85.673873c-30.724769 0-55.632041 24.907273-55.632041 55.633065L291.219129 630.041832zM707.890994 603.431777l0 21.164019c0 20.037359-16.242939 36.281321-36.281321 36.281321L352.391351 660.877117c-20.038382 0-36.282345-16.243963-36.282345-36.281321l0-21.164019L707.890994 603.431777zM315.857273-3.561737l0-21.165042c0-20.037359 16.243963-36.281321 36.282345-36.281321l319.218322 0c20.038382 0 36.282345 16.243963 36.282345 36.281321l0 21.165042L315.857273-3.561737zM707.890994 578.015921 316.109006 578.015921l0-555.400462 391.781988 0L707.890994 578.015921z"  horiz-adv-x="1024" />

    
    <glyph glyph-name="jinlingyingcaiwangtubiao50" unicode="&#59323;" d="M963.891-22.374l-193.075 227.379c-3.379 3.994-8.243 6.426-13.466 6.733-5.069 0.179-10.317-1.536-14.208-5.069l-133.914-123.955c-127.155 67.021-242.662 225.715-270.413 265.626l74.061 142.080c3.661 7.014 2.637 15.539-2.586 21.504l-193.075 220.979c-3.866 4.403-9.139 6.784-15.437 6.528-5.862-0.307-11.264-3.277-14.669-8.090l-139.418-197.35c-2.15-3.021-3.354-6.605-3.507-10.317-4.454-111.309 67.917-244.045 70.426-248.525 138.88-296.678 424.96-415.078 437.888-420.301 52.301-18.406 103.117-27.725 151.091-27.725 176.128 0 258.33 122.368 261.734 127.565 4.685 7.117 4.096 16.461-1.434 22.938zM703.59-134.477c-43.622 0-90.138 8.602-137.523 25.242-2.816 1.126-284.365 118.016-417.254 401.792-0.691 1.254-67.763 124.416-66.458 224.026l122.010 172.672 168.371-192.691-73.293-140.646c-3.226-6.17-2.842-13.594 0.973-19.405 5.837-8.858 144.205-217.702 303.77-294.221 7.091-3.405 15.565-2.15 21.35 3.226l128.973 119.398 170.112-200.294c-23.501-28.058-95.437-99.098-221.030-99.098z"  horiz-adv-x="1024" />

    
    <glyph glyph-name="double30" unicode="&#58996;" d="M1027.77337 313.150685 761.47726 579.432767c-3.801425 3.808438-8.184986 5.716164-13.136658 5.716164-4.951671 0-9.328219-1.907726-13.136658-5.716164l-28.573808-28.573808c-3.808438-3.808438-5.709151-8.184986-5.709151-13.143671s1.900712-9.335233 5.709151-13.143671L931.208767 300l-224.57863-224.57863c-3.808438-3.808438-5.709151-8.192-5.709151-13.136658 0-4.958685 1.900712-9.342247 5.709151-13.150685l28.573808-28.559781c3.808438-3.815452 8.184986-5.709151 13.136658-5.709151 4.958685 0 9.335233 1.900712 13.136658 5.709151l266.29611 266.282082c3.808438 3.808438 5.702137 8.192 5.702137 13.143671S1031.574795 309.335233 1027.77337 313.150685zM814.051945 300c0 4.951671-1.900712 9.335233-5.716164 13.150685L542.053699 579.432767c-3.808438 3.808438-8.192 5.716164-13.143671 5.716164s-9.335233-1.907726-13.143671-5.716164l-28.566795-28.573808c-3.815452-3.808438-5.716164-8.184986-5.716164-13.143671s1.900712-9.335233 5.716164-13.143671L711.771178 300l-224.571616-224.57863c-3.815452-3.808438-5.716164-8.192-5.716164-13.136658 0-4.958685 1.900712-9.342247 5.716164-13.150685l28.566795-28.559781c3.808438-3.815452 8.192-5.709151 13.143671-5.709151s9.335233 1.900712 13.143671 5.709151l266.282082 266.282082C812.151233 290.664767 814.051945 295.048329 814.051945 300z"  horiz-adv-x="1515" />

    
    <glyph glyph-name="lanzi" unicode="&#58916;" d="M882.688 334.816c-6.144 0-11.264-1.024-17.408-3.072l0 3.072L743.424 334.816 653.312 545.76l0 1.024 0 0 0 0 0 0L371.712 546.784l0-70.656 281.6 0L653.312 443.36l46.08-108.544L325.632 334.816 370.688 443.36 370.688 546.784l-89.088-211.968L159.744 334.816l0-3.072c-5.12 2.048-11.264 3.072-17.408 3.072-29.696 0-53.248-23.552-53.248-53.248 0-29.696 23.552-53.248 53.248-53.248 6.144 0 12.288 1.024 17.408 3.072L159.744 228.32l0 0 0 0 105.472 0 0 0L159.744 228.32l19.456-278.528 38.912-38.912 588.8 0 38.912 37.888L865.28 228.32l-105.472 0 0 0 106.496 0 0 4.096c5.12-2.048 11.264-3.072 17.408-3.072 29.696 0 53.248 23.552 53.248 53.248C934.912 311.264 911.36 334.816 882.688 334.816zM280.576 228.32l53.248 0 410.624 0 0 0-410.624 0L280.576 228.32 280.576 228.32zM334.848 17.376l-70.656 0L264.192 193.504l1.024 0 0-1.024 0 1.024 69.632 0L334.848 17.376zM477.184 17.376l-70.656 0L406.528 193.504l70.656 0L477.184 17.376zM618.496 17.376l-70.656 0L547.84 193.504l70.656 0L618.496 17.376zM758.784 17.376l-70.656 0L688.128 193.504l70.656 0L758.784 17.376z"  horiz-adv-x="1024" />

    
    <glyph glyph-name="shouye" unicode="&#58893;" d="M1013.262379 267.005c-3.985-3.861-9.09-5.729-14.321-5.729-5.293 0-10.772 2.117-14.695 6.352l-64.824 67.408 0-525.474c0-11.208-9.154-20.363-20.487-20.363L632.601379-210.801c-11.271 0-20.362 9.155-20.362 20.363 0 11.458 9.153 20.55 20.362 20.55L878.260379-169.888 878.260379 377.878 509.865379 761.81 141.220379 377.878l0-547.766 225.172 0 0 307.12c0 11.458 9.186 20.611 20.519 20.611l245.69 0c11.396 0 20.549-9.277 20.549-20.611 0-11.333-9.153-20.549-20.549-20.549L407.522379 116.683l0-307.121c0-11.208-9.185-20.363-20.611-20.363L120.701379-210.801c-11.301 0-20.61 9.155-20.61 20.363L100.091379 335.097l-64.762-67.534c-7.846-8.156-20.862-8.405-29.019-0.559-8.158 7.846-8.438 20.829-0.654 29.018L494.950379 805.741C498.750379 809.759 504.260379 812 509.865379 812s10.897-2.242 14.727-6.321l489.296-509.72C1021.731379 287.772 1021.482379 274.787 1013.262379 267.005L1013.262379 267.005z"  horiz-adv-x="1025" />

    
    <glyph glyph-name="iconfontshezhichilun" unicode="&#58881;" d="M999.044329 406.716868l-111.908049 37.325804c-2.210453 5.740606-4.599786 11.444706-7.166175 17.148806l52.798972 105.524933c7.0238 14.045775 4.278531 31.015701-6.84492 42.139152L822.680866 712.100678c-11.123451 11.158132-28.05687 13.86872-42.139152 6.84492l-105.561439-52.762466c-5.7041 2.531708-11.4082 4.919216-17.112299 7.129668l-37.325804 111.908049C615.586452 800.12087 601.646544 810.174688 585.925133 810.174688l-146.024953 0c-15.721412 0-29.661319-10.053818-34.617041-24.955665L367.957335 673.312801c-5.7041-2.210453-11.444706-4.599786-17.112299-7.129668L245.283597 718.945598c-14.045775 7.058481-31.015701 4.313212-42.139152-6.84492L99.899328 608.85556c-11.123451-11.123451-13.86872-28.093376-6.84492-42.139152l52.762466-105.561439c-2.531708-5.667594-4.919216-11.4082-7.129668-17.112299l-111.908049-37.325804C11.879136 401.761146 1.825318 387.821239 1.825318 372.099827l0-146.024953c0-15.721412 10.053818-29.661319 24.955665-34.617041l111.908049-37.325804c2.210453-5.7041 4.599786-11.444706 7.166175-17.148806L93.054408 31.458291c-7.0238-14.045775-4.278531-31.015701 6.84492-42.139152l103.243293-103.243293c11.158132-11.158132 28.128057-13.903401 42.139152-6.84492l105.561439 52.762466c5.7041-2.531708 11.4082-4.919216 17.112299-7.129668l37.325804-111.908049c4.955722-14.901847 18.895629-24.955665 34.617041-24.955665l146.024953 0c15.721412 0 29.661319 10.053818 34.651722 24.955665l37.254617 111.871543c5.7041 2.245134 11.444706 4.634467 17.148806 7.166175l105.561439-52.762466c14.011094-7.0238 30.98102-4.313212 42.139152 6.84492l103.243293 103.243293c11.123451 11.123451 13.86872 28.093376 6.84492 42.139152l-52.762466 105.561439c2.531708 5.7041 4.919216 11.4082 7.129668 17.112299l111.908049 37.325804c14.901847 4.955722 24.955665 18.895629 24.955665 34.617041l0 146.024953C1023.999994 387.821239 1013.946176 401.761146 999.044329 406.716868zM950.987517 252.38492l-103.672241-34.580535c-10.873383-3.60134-19.430446-12.156578-23.066467-23.029961-4.634467-13.86872-10.517447-27.985683-17.504742-41.996777-5.098096-10.26738-5.098096-22.318089 0.036506-32.585469l48.912883-97.860448-66.025183-66.025183-97.860448 48.912883c-10.230873 5.132777-22.35277 5.132777-32.585469 0.036506-14.011094-6.987294-28.164563-12.870275-41.996777-17.504742-10.909889-3.636021-19.465127-12.193084-23.101148-23.066467L559.615086-138.987511l-93.404862 0-34.580535 103.672241c-3.60134 10.873383-12.156578 19.430446-23.029961 23.066467-13.86872 4.634467-27.985683 10.517447-41.996777 17.504742-10.26738 5.098096-22.389276 5.098096-32.585469-0.036506l-97.860448-48.912883-66.025183 66.025183 48.947564 97.860448c5.132777 10.26738 5.132777 22.389276 0 32.656656-6.952613 13.903401-12.833768 28.022189-17.504742 41.92559-3.636021 10.873383-12.193084 19.430446-23.066467 23.029961L74.837795 252.38492l0 93.404862 103.672241 34.580535c10.873383 3.60134 19.430446 12.156578 23.066467 23.029961 4.670973 13.939907 10.552128 28.022189 17.468235 41.854403 5.169283 10.303886 5.169283 22.389276 0.036506 32.691337l-48.947564 97.896954 66.025183 66.025183 97.896954-48.947564c10.26738-5.132777 22.35277-5.169283 32.691337 0.036506 13.832214 6.916107 27.914496 12.799087 41.854403 17.468235 10.873383 3.636021 19.430446 12.193084 23.029961 23.066467L466.210226 737.162211l93.404862 0 34.580535-103.672241c3.60134-10.873383 12.156578-19.430446 23.029961-23.066467 13.86872-4.634467 27.985683-10.517447 41.996777-17.504742 10.230873-5.06159 22.35277-5.06159 32.585469 0.036506l97.860448 48.912883 66.025183-66.025183-48.947564-97.860448c-5.132777-10.26738-5.132777-22.389276 0-32.656656 6.952613-13.903401 12.833768-28.022189 17.504742-41.92559 3.636021-10.873383 12.193084-19.430446 23.066467-23.029961l103.672241-34.580535L950.989343 252.38492zM512.912656 481.618542c-100.784598 0-182.531192-81.746594-182.531192-182.531192 0-100.819279 81.746594-182.531192 182.531192-182.531192 100.819279 0 182.531192 81.711913 182.531192 182.531192C695.443848 399.871948 613.731935 481.618542 512.912656 481.618542zM512.912656 189.568634c-60.39227 0-109.518716 49.126445-109.518716 109.518716s49.126445 109.518716 109.518716 109.518716 109.518716-49.126445 109.518716-109.518716S573.304926 189.568634 512.912656 189.568634z"  horiz-adv-x="1024" />

    
    <glyph glyph-name="lianjie" unicode="&#58908;" d="M582.239997 232.857032c-56.713997 0-113.426994 21.589999-156.609992 64.772997-11.728999 11.726999-11.728999 30.792998 0 42.520998 11.728999 11.726999 30.791998 11.726999 42.520998 0 62.910997-62.909997 165.212992-62.909997 228.121989 0L914.94998 558.830016c62.910997 62.909997 62.910997 165.211992 0 228.121989-62.907997 62.909997-165.210992 62.909997-228.119989 0L502.313 602.434014c-11.728999-11.727999-30.792998-11.727999-42.521998 0-11.726999 11.727999-11.726999 30.792998 0 42.520998L644.308994 829.472003c86.364996 86.364996 226.858989 86.364996 313.163985 0 86.304996-86.363996 86.363996-226.857989 0-313.163985L738.794989 297.631029c-43.183998-43.183998-99.898995-64.772997-156.612992-64.772997L582.239997 232.858032zM221.386014-127.99995c-56.714997 0-113.429994 21.591999-156.611992 64.772997-86.363996 86.364996-86.363996 226.856989 0 313.163985l218.678989 218.678989c86.364996 86.364996 226.858989 86.364996 313.162985 0 11.727999-11.727999 11.727999-30.791998 0-42.520998-11.727999-11.726999-30.792998-11.726999-42.518998 0-62.910997 62.909997-165.213992 62.909997-228.122989 0L107.29402 207.416034c-62.909997-62.907997-62.909997-165.212992 0-228.120989 62.908997-62.907997 165.211992-62.907997 228.121989 0l184.516991 184.517991c11.728999 11.728999 30.793998 11.728999 42.520998 0 11.728999-11.726999 11.728999-30.790998 0-42.520998L377.938007-63.226953C334.755009-106.407951 278.040011-127.99995 221.325014-127.99995L221.386014-127.99995z"  horiz-adv-x="1024" />

    
    <glyph glyph-name="yusan0" unicode="&#59269;" d="M528.432763 729.628832 528.432763 779.353326c0 9.086959-7.354502 16.458857-16.449647 16.458857-9.078773 0-16.45067-7.371898-16.45067-16.458857l0-49.723471c-220.203214-7.130398-378.338814-157.039639-378.338814-361.805256 0-7.312546 4.826935-13.754259 11.840676-15.802918 7.030114-2.072195 14.551414 0.788969 18.489096 6.965645 0.364297 0.572028 37.94931 58.222029 117.712959 58.222029 43.911092 0 84.797291-21.889543 109.364827-58.544371 6.101975-9.129938 21.930475-9.129938 28.033473 0 21.441335 32.028461 47.14474 52.782134 84.672448 57.516971l0-328.191694c0-45.3867-28.67304-74.075089-74.026994-74.075089-45.345768 0-74.017784 28.688389-74.017784 74.075089 0 9.095145-15.595186 16.458857-24.674982 16.458857-9.078773 0-24.674982-15.59621-24.674982-24.692379 0-63.537082 48.91199-98.768491 123.368772-107.000989 63.11548-6.971785 123.376958 51.698452 123.376958 115.234511L536.658098 416.17991c37.526685-4.726651 63.238276-25.479301 84.721567-57.516971 6.118348-9.146311 21.938662-9.121751 28.033473 0 24.526603 36.654828 65.411779 58.544371 109.34743 58.544371 66.132186 0 118.634957-59.564607 119.16503-60.153008 4.50971-5.208629 11.740392-7.040347 18.182105-4.626367 6.426363 2.39556 10.69662 8.531304 10.69662 15.396665C906.771577 572.589193 748.619604 722.490248 528.432763 729.628832zM758.760568 466.592067c-47.616484 0-92.341105-20.546965-123.375935-55.834656-31.067576 35.288714-75.791174 55.834656-123.385145 55.834656-47.608298 0-92.350314-20.537755-123.393331-55.834656-31.043017 35.288714-75.775824 55.834656-123.368772 55.834656-51.447742 0-72.084759-19.567661-95.940073-38.522362 21.408589 167.81096 149.403728 252.516154 342.685803 252.516154 194.96439 0 323.788407-86.778412 343.256808-256.926604C829.404512 443.591213 805.872562 466.592067 758.760568 466.592067z"  horiz-adv-x="1024" />

    
    <glyph glyph-name="dingwei" unicode="&#58905;" d="M511.654 878.113c-184.885 0-335.451-146.414-335.451-326.318 0-294.627 308.88-635.475 322.028-649.868l13.424-14.807 13.424 14.807c13.147 14.391 322.028 357.317 322.028 649.868 0 179.904-150.565 326.318-335.451 326.318v0zM511.654-59.325c-60.060 69.747-299.471 363.683-299.471 611.12 0 160.668 134.373 291.306 299.471 291.306 165.097 0 299.471-130.638 299.471-291.306 0-245.5-239.549-541.095-299.471-611.12v0zM515.53 672.884c-70.717 0-128.286-56.047-128.286-124.826 0-68.917 57.569-124.826 128.286-124.826 70.717 0 128.286 56.047 128.286 124.826 0 68.779-57.569 124.826-128.286 124.826v0zM515.53 458.244c-50.788 0-92.304 40.271-92.304 89.814s41.377 89.814 92.304 89.814c50.927 0 92.304-40.271 92.304-89.814 0-49.542-41.377-89.814-92.304-89.814v0zM515.53 458.244z"  horiz-adv-x="1024" />

    
    <glyph glyph-name="pinterest2" unicode="&#59291;" d="M853.344 896l-682.688 0c-94.24 0-170.656-76.416-170.656-170.688l0-682.624c0-94.272 76.384-170.688 170.656-170.688l682.688 0c94.24 0 170.656 76.416 170.656 170.688l0 682.624c0 94.272-76.384 170.688-170.656 170.688zM573.28 91.968c-51.872 0-100.64 26.944-117.344 58.784 0 0-25.664-97.76-31.904-121.696-11.552-44.48-42.752-100.224-63.648-134.24l-34.976 12.384c-4.48 40.512-8.512 102.656 1.76 146.88 9.312 39.968 60.032 254.496 60.032 254.496s-15.328 30.656-15.328 76c0 71.2 41.28 124.352 92.64 124.352 43.68 0 64.8-32.8 64.8-72.128 0-43.936-27.968-109.6-42.4-170.464-12.064-50.976 25.568-92.544 75.808-92.544 91.008 0 160.96 95.968 160.96 234.464 0 122.592-88.096 208.288-213.856 208.288-145.664 0-231.2-109.28-231.2-222.176 0-44 16.96-91.2 38.112-116.832 4.192-5.056 4.8-9.504 3.552-14.688-3.872-16.192-12.512-50.976-14.208-58.08-2.24-9.376-7.424-11.36-17.12-6.848-63.936 29.76-103.936 123.264-103.936 198.336 0 161.504 117.344 309.824 338.304 309.824 177.6 0 315.648-126.56 315.648-295.712 0-176.448-111.264-318.464-265.664-318.464z"  horiz-adv-x="1024" />

    
    <glyph glyph-name="1" unicode="&#58942;" d="M48.783053 676.26853c0 33.80492 0 67.609841 0 101.415784 315.860854 0 631.720685 0 947.58154 0 0-33.80492 0-67.609841 0-101.415784-1.139963-0.014326-2.279926-0.042979-3.419889-0.042979-313.580928-0.002047-627.161856-0.002047-940.741761 0C51.062979 676.226574 49.923016 676.254204 48.783053 676.26853zM48.783053 574.853769c1.345648-0.033769 2.691295-0.097214 4.036943-0.097214 313.169559-0.004093 626.338095-0.004093 939.507654 0 1.345648 0 2.691295 0.063445 4.036943 0.097214 0-33.80492 0-67.609841 0-101.415784-1.234107-0.079818-2.467191-0.230244-3.701299-0.230244-313.39264-0.010233-626.786303-0.010233-940.178943 0-1.234107 0-2.467191 0.150426-3.701299 0.230244C48.783053 507.242905 48.783053 541.047826 48.783053 574.853769zM48.783053 371.400031c1.234107 0.080841 2.467191 0.231267 3.701299 0.231267 313.39264 0.010233 626.786303 0.010233 940.178943 0 1.234107 0 2.467191-0.150426 3.701299-0.231267 0-33.80492 0-67.609841 0-101.415784-1.345648 0.033769-2.691295 0.097214-4.036943 0.097214-313.169559 0.004093-626.338095 0.004093-939.507654 0-1.345648 0-2.691295-0.063445-4.036943-0.097214C48.783053 303.79019 48.783053 337.595111 48.783053 371.400031zM48.783053 168.569486c1.139963 0.014326 2.279926 0.041956 3.419889 0.042979 313.580928 0.002047 627.161856 0.002047 940.741761 0 1.139963 0 2.279926-0.027629 3.419889-0.042979 0-33.795711 0-67.592444 0-101.401458-315.860854 0-631.720685 0-947.58154 0C48.783053 100.977042 48.783053 134.772752 48.783053 168.569486z"  horiz-adv-x="1024" />

    
    <glyph glyph-name="icon1" unicode="&#58957;" d="M733.645564 191.933613c-36.025495 36.025495-77.985142 64.313771-124.70828 84.075861-10.68127 4.517897-21.517059 8.512884-32.474622 12.045337 26.686802 13.101389 51.323922 30.644951 72.964802 52.283784 51.610448 51.611471 80.033801 120.231315 80.033801 193.219653s-28.423353 141.608182-80.033801 193.219653C597.813946 778.388349 529.195126 806.811702 456.205764 806.811702S314.597583 778.388349 262.987135 726.777901c-51.611471-51.611471-80.033801-120.231315-80.033801-193.219653s28.423353-141.608182 80.033801-193.219653c21.638833-21.638833 46.276976-39.183418 72.963779-52.283784-10.957563-3.532453-21.792329-7.52744-32.473599-12.045337-46.724161-19.763113-88.681762-48.050366-124.70828-84.075861-36.026518-36.025495-64.313771-77.985142-84.076884-124.70828-13.806447-32.641421-23.001877-66.653049-27.536146-101.585653l44.255946 0c23.430642 158.651346 154.158009 282.82546 315.833225 296.189839 9.55768-1.000793 19.219737-1.523703 28.962635-1.523703 9.742898 0 19.404955 0.523933 28.963659 1.523703 161.674193-13.364379 292.400536-137.538493 315.833225-296.189839l44.254923 0c-4.535293 34.933627-13.730723 68.944232-27.536146 101.585653C797.958312 113.948471 769.671059 155.907095 733.645564 191.933613zM484.386594 305.847036c-9.338692 0.659009-18.732643 1.003863-28.179806 1.003863-9.447163 0-18.842137-0.345877-28.180829-1.003863-113.269763 13.934361-201.263863 110.736057-201.263863 227.711212 0 126.515439 102.927207 229.443669 229.443669 229.443669 126.516462 0 229.443669-102.927207 229.443669-229.443669C685.649434 416.583093 597.656357 319.78242 484.386594 305.847036zM927.51911 128.883625c-16.023952 42.173518-39.675628 79.924307-70.297043 112.202455-35.300994 37.213553-71.638597 58.437947-92.214215 68.549236 10.107195 9.121751 25.678846 24.730241 41.153282 46.340421 33.845853 47.267537 51.736315 101.668541 51.736315 157.319002 0 122.177644-82.787518 203.75459-100.0466 219.430618l0-65.004503c25.125237-32.513508 56.235792-86.485747 56.235792-154.426115 0-46.603411-14.354939-90.535993-42.665729-130.576941-21.571295-30.508851-43.586704-47.192835-43.756573-47.319725l-8.859785-6.568602 0-32.384571-0.061398-15.372106 14.484899-5.215792c0.479931-0.176009 48.457642-18.142196 93.600795-66.399269 58.229193-62.244646 85.60161-144.237055 81.429591-243.821121l43.843554 0C954.352245 25.119353 946.099281 79.983915 927.51911 128.883625z"  horiz-adv-x="1024" />

    
    <glyph glyph-name="weibiaoti1" unicode="&#58882;" d="M1024 382.976c0 282.112-229.888 512-512 512-282.624 0-512-229.888-512-512 0-146.944 61.952-279.04 161.28-372.736l-0.512-0.512 12.8-11.264c13.312-11.776 27.136-22.528 41.472-32.768 1.024-1.024 2.048-1.536 3.584-2.56 5.12-3.584 10.24-7.168 15.36-10.24 3.072-2.048 6.144-4.096 9.216-5.632 3.072-2.048 6.656-4.096 9.728-5.632 4.096-2.56 8.192-4.608 12.288-7.168 2.048-1.024 4.096-2.048 6.144-3.072 5.12-2.56 10.752-5.632 15.872-8.192 0.512-0.512 1.536-0.512 2.048-1.024 6.656-3.072 12.8-6.144 19.456-8.704 0.512 0 0.512-0.512 1.024-0.512 6.656-3.072 13.824-5.632 20.992-8.192 0 0 0 0 0 0 35.328-13.312 72.704-23.04 111.104-28.16 0 0 0 0 0 0 7.168-1.024 14.848-2.048 22.016-2.56 0.512 0 1.024 0 2.048 0 7.168-0.512 14.336-1.024 21.504-1.536 0.512 0 1.536 0 2.048 0 7.168-0.512 14.336-0.512 22.016-0.512 7.168 0 14.336 0 22.016 0.512 0.512 0 1.536 0 2.048 0 7.168 0.512 14.336 1.024 21.504 1.536 0.512 0 1.024 0 1.536 0 62.464 5.632 121.344 22.528 175.616 48.64 0 0 0.512 0 0.512 0.512 6.144 3.072 12.288 6.144 17.92 9.216 1.024 0.512 2.048 1.024 3.072 1.536 5.12 2.56 10.24 5.632 15.36 8.704 2.048 1.024 3.584 2.048 5.632 3.584 4.608 2.56 8.704 5.632 13.312 8.192 2.56 1.536 5.12 3.072 7.68 5.12 3.584 2.56 7.68 5.12 11.264 7.68 3.072 2.048 6.144 4.096 8.704 6.656 1.536 1.536 3.584 2.56 5.12 4.096 4.608 3.584 9.216 7.168 13.824 11.264 0.512 0.512 1.024 1.024 1.536 1.536 3.584 3.072 7.68 6.144 11.264 9.216l12.8 11.264-0.512 0.512C962.048 103.424 1024 236.032 1024 382.976zM34.816 382.976c0 263.168 214.016 476.672 477.184 476.672 263.168 0 477.184-214.016 477.184-476.672 0-136.192-57.344-259.584-149.504-346.624-33.792 32.768-85.504 59.904-146.944 76.8-27.648 12.288-33.792 15.36-40.96 20.992l-7.68 7.168c-11.264 10.752-17.408 16.896-19.456 33.28l0 73.216c19.456 23.04 32.256 53.248 44.544 93.184 16.384 6.144 32.768 27.136 38.4 50.176 5.632 25.088 3.072 46.08-6.656 57.856 27.136 101.888 23.04 188.928-11.776 234.496-17.92 24.064-44.544 36.864-75.776 36.864-3.072 2.56-4.608 5.12-7.168 8.192-12.288 16.896-25.6 28.672-82.944 28.672l-6.144 0c-68.608 0-120.832-20.48-155.136-61.44C317.952 643.584 305.664 560.128 324.608 447.488c-8.192-11.776-10.752-31.232-6.144-54.784 4.096-22.016 17.92-41.472 33.28-49.664 14.848-44.032 30.72-74.24 48.64-94.72 1.024-33.28 1.536-70.656 0-77.824-2.048-10.24-7.68-19.968-17.408-29.696-9.216-9.216-22.016-16.384-48.128-26.624-64-17.408-116.736-45.056-151.04-77.824C92.672 123.392 34.816 246.272 34.816 382.976zM806.912 8.192c-1.024-0.512-1.536-1.536-2.56-2.048-4.608-3.584-9.216-7.168-14.336-10.752-1.536-1.024-3.072-2.048-4.608-3.584-3.584-2.56-7.168-5.12-10.752-7.168-2.56-1.536-5.632-3.584-8.192-5.12-2.048-1.536-4.096-2.56-6.656-4.096-4.096-2.56-8.192-5.12-12.8-7.68-1.536-1.024-3.072-1.536-4.608-2.56-5.12-2.56-9.728-5.12-14.848-7.68-0.512-0.512-1.024-0.512-1.536-1.024-53.76-27.136-112.128-44.032-172.544-49.152-0.512 0-1.024 0-1.536 0-6.144-0.512-12.288-1.024-18.432-1.024-1.024 0-2.048 0-2.56 0-6.144 0-12.8-0.512-18.944-0.512-6.144 0-12.8 0-18.944 0.512-1.024 0-2.048 0-2.56 0-6.144 0.512-12.288 0.512-18.432 1.024-0.512 0-1.024 0-1.536 0-47.104 4.096-93.184 15.36-136.704 32.768 0 0-0.512 0-0.512 0-6.144 2.56-12.288 5.12-17.92 7.68-0.512 0-0.512 0.512-1.024 0.512-5.12 2.56-10.24 5.12-15.36 7.68-1.024 0.512-2.048 1.024-3.072 1.536-4.608 2.56-9.216 4.608-13.824 7.168-2.048 1.024-4.096 2.048-6.144 3.584-4.096 2.048-7.68 4.608-11.264 6.656-2.56 1.536-5.12 3.072-7.68 5.12-1.536 1.024-3.072 2.048-4.608 3.072-5.12 3.072-9.728 6.656-14.336 9.728-0.512 0.512-1.536 1.024-2.048 1.536-8.192 5.632-16.384 11.776-24.064 18.432 29.696 28.16 76.8 51.712 135.68 68.096 28.672 11.264 46.592 19.968 61.44 34.816 14.848 14.848 24.064 30.72 27.136 48.128 2.56 14.848 1.024 74.24 0.512 91.648l0 6.656-4.608 5.12c-17.408 17.408-32.256 47.104-48.128 94.208l-1.024 12.288-13.312-0.512c-3.072 1.536-12.8 11.264-15.36 25.6-2.56 12.288-1.536 21.504-0.512 25.6l11.776 2.048-3.072 17.408c-19.456 106.496-10.24 183.296 27.648 228.864 27.136 32.256 70.144 49.152 128 49.152l6.144 0c44.032 0 48.64-6.656 54.272-14.336 4.096-5.632 9.728-13.312 21.504-20.48l4.608-2.56 9.728 0.512c20.992 0 36.352-7.68 48.128-22.528 28.672-37.888 29.696-120.832 2.56-216.064l-2.56-16.896 13.312-4.096c1.024-4.096 1.536-13.312-1.024-26.112-2.56-10.752-8.192-18.432-12.8-22.528l-14.336 10.752-7.168-24.576c-12.288-43.008-25.088-75.776-44.544-96.256l-5.12-5.12 0-89.088c3.584-30.72 16.896-43.52 30.208-55.808l8.192-8.192c12.288-10.24 22.016-14.336 52.736-28.16 56.832-15.872 102.912-39.424 132.096-67.072C811.008 11.264 808.96 9.728 806.912 8.192z"  horiz-adv-x="1025" />

    
    <glyph glyph-name="benditianchong01" unicode="&#59102;" d="M505.619938 832.199377c-191.401869 0-344.523364-153.121495-344.523364-344.523364 0-63.800623 25.520249-127.601246 51.040498-178.641745 0 0 204.161994-389.183801 204.161994-389.183801 38.280374-63.800623 133.981308-63.800623 165.88162 0 0 0 204.161994 389.183801 210.542056 389.183801 25.520249 57.420561 51.040498 108.461059 51.040498 178.641745C843.76324 679.077882 690.641745 832.199377 505.619938 832.199377zM505.619938 321.794393C409.919003 321.794393 333.358255 398.35514 333.358255 494.056075s76.560748 172.261682 172.261682 172.261682 172.261682-76.560748 172.261682-172.261682S601.320872 321.794393 505.619938 321.794393z"  horiz-adv-x="1024" />

    
    <glyph glyph-name="dianzan" unicode="&#58892;" d="M884.876 472.857h-237.905c92.186 340.464-63.517 357.853-63.517 357.853-65.993 0-52.312-52.182-57.303-60.882 0-166.502-176.85-296.972-176.85-296.972v-472.172c0-46.608 63.517-63.394 88.433-63.394h357.452c33.641 0 61.036 88.224 61.036 88.224 88.434 300.706 88.434 390.177 88.434 390.177 0.001 62.128-59.781 57.164-59.781 57.164v0 0zM251.671 472.7h-142.457c-29.42 0-29.873-28.896-29.873-28.896l29.42-476.203c0-30.309 30.361-30.309 30.361-30.309h123.297c25.686 0 25.459 20.050 25.459 20.050l-0 479.247c0 36.574-36.208 36.111-36.208 36.111v0 0zM251.671 472.7z"  horiz-adv-x="1024" />

    
    <glyph glyph-name="11" unicode="&#58883;" d="M512-64c-128 0-256 89.6-256 256 0 19.2 12.8 32 32 32S320 211.2 320 192c0-153.6 128-192 192-192 121.6 0 192 70.4 192 192 0 115.2-83.2 153.6-211.2 192C377.6 422.4 256 460.8 256 608 256 742.4 358.4 832 512 832c160 0 256-115.2 256-224C768 588.8 755.2 576 736 576S704 588.8 704 608C704 684.8 633.6 768 512 768 396.8 768 320 704 320 608 320 512 390.4 486.4 512 448c115.2-38.4 256-83.2 256-256C768 38.4 665.6-64 512-64zM512 768C492.8 768 480 780.8 480 800l0 64C480 883.2 492.8 896 512 896s32-12.8 32-32l0-64C544 780.8 531.2 768 512 768zM512-128c-19.2 0-32 12.8-32 32l0 64C480-12.8 492.8 0 512 0s32-12.8 32-32l0-64C544-115.2 531.2-128 512-128z"  horiz-adv-x="1024" />

    
    <glyph glyph-name="moban1qiuzhiyixiang01" unicode="&#59002;" d="M420.126-62.493c-5.11 0-10.833 0-18.906 3.883-18.702 7.869-31.17 26.264-31.17 46.192v173.528l270.614 332.34-344.604-296.98-198.873 81.348c-19.928 7.971-31.885 24.527-31.885 44.353 0 19.213 8.993 35.564 24.731 45.068l0.409 0.204c0 0 630.956 362.999 767.387 441.485 4.088 2.35 25.549 16.862 32.498 21.257 13.694 8.789 31.681 7.256 43.229-4.19 0.102-0.102 0.204-0.204 0.204-0.204 1.84-1.84 23.198-19.519 24.22-54.061 0-0.818 0-1.635-0.204-2.453l-123.554-728.246-0.204-0.715c-5.11-20.541-16.76-30.148-25.549-34.542-2.964-1.533-13.388-6.234-23.607-6.438-6.541-0.204-13.081 1.124-19.111 3.781l-201.019 81.552-106.181-129.788-0.715-0.715c-10.424-10.526-24.22-16.658-37.71-16.658zM418.491-21.819c0.511 0 1.124 0 1.635 0 2.453 0 5.723 1.635 8.482 4.088l123.759 151.25 229.94-93.407c0.409-0.204 0.818-0.307 1.329-0.307h0.511c1.124 0.204 3.986 1.022 6.132 2.146 1.533 0.715 3.066 3.475 4.088 7.46l123.452 727.939c0.204 1.533 0.92 5.416-5.416 12.468-1.226 0.102-2.759 0.102-4.088 0.102-1.022-0.204-3.577-0.92-5.723-1.942l-791.709-455.588c-1.431-0.818-4.905-3.27-4.905-10.22 0-1.124 0-4.19 6.438-6.745l0.204-0.102 175.981-72.048 499.737 430.959 29.024-28.206-406.739-499.43v-159.016c0-4.088 3.27-7.562 6.438-8.891l0.715-0.307 0.715-0.204z"  horiz-adv-x="1024" />

    
    <glyph glyph-name="fenxiang" unicode="&#58973;" d="M375.805108 630.564605l108.712981 106.309234 0-470.964398c0-14.96176 12.241812-27.203572 27.203572-27.203572s27.203572 12.241812 27.203572 27.203572L538.925233 737.135806 647.009903 629.661026c10.609639-10.550287 27.921933-10.501168 38.47222 0.109494s10.501168 27.921933-0.10847 38.47222L530.869766 821.872722c-10.609639 10.550287-27.921933 10.501168-38.47222-0.10847l0 0c-1.464351-1.473561-2.717901-3.079128-3.773953-4.774747L337.764724 669.464567c-10.697643-10.461259-10.891048-27.77253-0.429789-38.46915S365.107465 620.104369 375.805108 630.564605zM793.025465 575.842283 638.974903 575.842283l0-0.038886c-12.596899-0.690732-22.597671-11.121292-22.597671-23.890107 0-12.854772 10.136871-23.338544 22.853497-23.902386l0.001023-0.122797 140.953266 0c34.958186 0 63.561641-28.602432 63.561641-63.561641l0-417.526325c0-34.958186-28.602432-63.560618-63.561641-63.560618L242.792699-16.760476c-34.958186 0-63.560618 28.602432-63.560618 63.560618L179.232081 464.326467c0 34.958186 28.602432 63.561641 63.560618 63.561641l140.611481 0 0 0.105401c0.130983-0.002047 0.260943-0.010233 0.39295-0.010233 13.216 0 23.928992 10.712993 23.928992 23.928992 0 13.216-10.714016 23.928992-23.928992 23.928992-0.132006 0-0.261966-0.008186-0.39295-0.010233l0 0.010233L229.950206 575.84126c-56.211233 0-102.201683-45.99045-102.201683-102.201683l0-434.106955c0-56.211233 45.99045-102.201683 102.201683-102.201683L793.025465-62.669062c56.211233 0 102.201683 45.99045 102.201683 102.201683l0 434.106955C895.228171 529.850809 849.236698 575.842283 793.025465 575.842283z"  horiz-adv-x="1024" />

    
    <glyph glyph-name="3" unicode="&#58884;" d="M303.81056 476.3136c0-37.66272-30.55616-68.18816-68.18816-68.18816l0 0c-37.632 0-68.08576 30.5152-68.08576 68.18816l0 0c0 37.70368 30.45376 68.18816 68.08576 68.18816l0 0C273.2544 544.50176 303.81056 514.00704 303.81056 476.3136L303.81056 476.3136zM576.49152 476.3136c0-37.66272-30.48448-68.18816-68.10624-68.18816l0 0c-37.70368 0-68.1984 30.5152-68.1984 68.18816l0 0c0 37.70368 30.49472 68.18816 68.1984 68.18816l0 0C546.00704 544.50176 576.49152 514.00704 576.49152 476.3136L576.49152 476.3136zM849.2544 476.3136c0-37.66272-30.55616-68.18816-68.18816-68.18816l0 0c-37.632 0-68.17792 30.5152-68.17792 68.18816l0 0c0 37.70368 30.54592 68.18816 68.17792 68.18816l0 0C818.688 544.50176 849.2544 514.00704 849.2544 476.3136L849.2544 476.3136zM774.3488-104.97024c-9.00096 0-17.84832 3.34848-24.69888 9.70752L565.56544 77.1072 144.22016 77.1072C64.6144 77.1072 0 141.79328 0 221.3376l0 509.952C0 810.76224 64.6144 875.52 144.22016 875.52l728.30976 0c79.54432 0 144.2304-64.75776 144.2304-144.2304l0-509.952c0-79.55456-64.68608-144.2304-144.2304-144.2304l-62.11584 0 0-146.0224c0-14.34624-8.57088-27.38176-21.78048-33.06496C783.99488-103.96672 779.13088-104.97024 774.3488-104.97024zM144.22016 803.40992c-39.8336 0-72.11008-32.34816-72.11008-72.11008l0-509.952c0-39.74144 32.27648-72.0896 72.11008-72.0896l435.5584 0c9.14432 0 17.99168-3.50208 24.70912-9.80992l133.79584-125.17376 0 98.88768c0 19.9168 16.05632 36.08576 36.05504 36.08576l98.18112 0c39.84384 0 72.11008 32.34816 72.11008 72.0896l0 509.952c0 39.77216-32.26624 72.11008-72.11008 72.11008L144.22016 803.39968z"  horiz-adv-x="1024" />

    
    <glyph glyph-name="chilun" unicode="&#58918;" d="M938.09191 475.077322c-18.798135 1.725294-75.764568 13.96813-90.712001 46.563502-13.048177 28.339442 8.507768 68.406996 28.858258 96.976682l12.646018 17.762549L765.061065 766.755404l-18.797112-14.083763c-17.015535-12.762675-72.54627-45.700855-104.162338-30.697139-25.40767 12.071943-32.305777 55.588039-33.686217 89.963964l-1.035586 25.408693L411.069775 837.347159l-0.977257-25.408693c-1.379417-34.374902-8.334829-77.892021-33.685193-89.963964-31.617092-15.003715-87.205131 17.934464-104.163361 30.697139l-18.85544 14.141068L129.566426 636.380054l12.647041-17.762549c20.348444-28.569686 41.905412-68.521606 28.971845-96.919377-14.889105-32.534997-70.64906-44.664246-90.769306-46.619784l-24.085558-2.183735 0-79.558987 0 0 0-97.378841 24.029276-2.186805c20.176528-1.953492 75.936483-14.08274 90.825588-46.619784 12.933567-28.340465-8.623401-68.349691-28.971845-96.861048l-12.647041-17.762549 123.822097-130.490983 18.85544 14.141068c16.957207 12.761652 72.545246 45.757137 104.163361 30.696116 25.350364-12.072967 40.871873-55.128575 42.25129-89.502453l0-25.869181 181.191712 0 0 25.869181c1.322112 34.373879 16.84362 77.429487 42.25129 89.502453 31.616068 15.061021 87.146802-17.934464 104.162338-30.696116l18.797112-14.083763 123.82312 130.432655-12.646018 17.762549c-20.35049 28.569686-41.906435 68.578911-28.858258 96.976682 14.947434 32.595372 71.913866 44.780903 90.712001 46.50415l24.085558 2.186805 0 96.573499 0 0 0 80.364329L938.09191 475.077322 938.09191 475.077322zM923.317415 332.687334c-32.595372-6.89913-102.035908-15.405875-124.053364-63.348794-16.899902-36.903491 2.184759-80.306001 33.514301-130.778532l-77.662801-77.661777c-30.524201 18.509563-86.34146 57.1977-135.607514 33.80185-34.720779-16.384156-55.529711-66.395176-62.082964-123.19174l-96.402607 0c-6.553253 56.796564-27.363208 106.807584-62.082964 123.19174-49.26503 23.337521-108.187001-4.426823-138.768507-22.995737l-62.658062 66.10865c31.271214 50.472532 38.571481 94.621031 21.671579 131.524522-22.016433 47.943942-91.457991 56.449663-124.052341 63.348794L95.132172 436.217269c32.594349 6.898107 102.035908 15.34857 124.052341 63.291488 16.95823 36.904515 9.599635 81.053014-21.671579 131.525546l62.658062 66.106604c30.582529-18.509563 89.5045-46.332235 138.824789-22.99369 69.788459 33.053814 58.462506 124.397195 58.462506 124.397195L560.990273 798.544411c6.553253-56.851822 23.799032-108.014062 58.519812-124.397195 49.266054-23.39585 108.24533 4.484128 138.768507 22.99369l62.71639-66.106604c-31.328519-50.472532-38.629809-94.620008-21.729907-131.525546 22.017456-47.942919 91.51632-56.392358 124.053364-63.291488L923.318438 332.687334 923.317415 332.687334zM500.976434 580.101283c-109.393479 0-198.323904-89.042989-198.323904-198.436468 0-109.451808 84.273359-191.367469 193.666838-191.367469 109.335151 0 194.067974 84.732823 194.067974 194.126302S610.370937 580.101283 500.976434 580.101283L500.976434 580.101283zM496.320391 229.273033c-85.59547 0-155.267273 69.613474-155.267273 155.207921 0 85.59547 69.671803 155.209968 155.267273 155.209968 85.651752 0 155.265226-69.614497 155.265226-155.209968C651.585617 298.886507 581.972143 229.273033 496.320391 229.273033L496.320391 229.273033zM496.320391 229.273033"  horiz-adv-x="1024" />

    
    <glyph glyph-name="rili" unicode="&#59053;" d="M1.024 896l0-1024 1024 0L1025.024 896 1.024 896zM982.356992 853.332992l0-192L43.691008 661.332992l0 192L982.356992 853.332992zM43.691008-85.334016l0 704 938.667008 0 0-704L43.691008-85.334016zM321.002496 789.332992l64.021504 0 0-64-64.021504 0 0 64ZM641.024 789.332992l64 0 0-64-64 0 0 64ZM366.877696 466.875392c-7.646208-51.9168-32.3328-52.834304-82.021376-54.62528l-7.707648-0.29184 0-36.166656 84.187136 0 0-236.665856 44.66688 0L406.002688 473.70752l-38.124544 0L366.877696 466.875392zM618.73152 366.290944c-19.832832 0-40.208384-6.458368-56.353792-17.333248l15.187968 78.249984 140.645376 0 0 42.375168-173.93664 0-33.938432-181.167104 38.603776 0 2.3552 3.666944c13.500416 21.042176 38.104064 34.082816 64.249856 34.082816 42.561536 0 73.457664-31.458304 73.457664-74.832896 0-39.207936-24.603648-78.916608-71.624704-78.916608-40.187904 0-69.083136 27.124736-70.270976 65.999872l-0.249856 7.749632-44.624896 0 0.188416-8.208384c1.436672-63.208448 46.707712-105.66656 112.6656-105.66656 66.499584 0 118.58432 50.917376 118.58432 115.874816C733.6704 318.83264 687.481856 366.290944 618.73152 366.290944z"  horiz-adv-x="1026" />

    
    <glyph glyph-name="shangchuan" unicode="&#58885;" d="M432 323.2l49.6 48 0-366.4c0-16 14.4-30.4 30.4-30.4 17.6 0 30.4 14.4 30.4 30.4L542.4 372.8l49.6-48c12.8-11.2 32-11.2 43.2 0 12.8 11.2 12.8 30.4 0 43.2l-86.4 86.4c-9.6 9.6-22.4 14.4-36.8 14.4-12.8 0-25.6-4.8-36.8-14.4l-86.4-86.4c-12.8-11.2-12.8-30.4 0-43.2C400 312 420.8 312 432 323.2zM846.4 512c-19.2 83.2-89.6 148.8-176 161.6-49.6 64-126.4 102.4-209.6 102.4-128 0-235.2-91.2-259.2-212.8C124.8 536 72 464 72 379.2c0-137.6 100.8-190.4 153.6-196.8 3.2 0 6.4 0 9.6 0l158.4 0 0 0c0 0 0 0 1.6 0 17.6 0 30.4 14.4 30.4 30.4 0 16-14.4 30.4-30.4 30.4-1.6 0-3.2 0-4.8 0l-155.2 0c0 0-100.8 14.4-100.8 137.6 0 72 56 131.2 126.4 136 0 0 0 0 0 0 0 110.4 91.2 200 201.6 200 75.2 0 139.2-40 174.4-100.8 0 0 1.6 0 1.6 0 83.2 0 152-67.2 152-150.4 0 0 0-1.6 0-1.6 56-6.4 100.8-52.8 100.8-110.4 0-57.6-44.8-105.6-100.8-110.4l0-1.6-145.6 0c-1.6 0-3.2 0-4.8 0-17.6 0-30.4-14.4-30.4-30.4 0-16 12.8-28.8 28.8-30.4l0 0 152 0c8 0 14.4 1.6 22.4 3.2 81.6 16 140.8 86.4 140.8 169.6C952 424 908.8 486.4 846.4 512z"  horiz-adv-x="1024" />

    
    <glyph glyph-name="icon" unicode="&#58955;" d="M512.133 271.019l-292.16 292.155c-12.27 12.28-32.186 12.28-44.457 0-12.281-12.27-12.281-32.186 0-44.457l314.388-314.388c12.27-12.28 32.186-12.28 44.457 0l314.387 314.388c6.14 6.136 9.211 14.183 9.211 22.228s-3.071 16.092-9.211 22.228c-12.27 12.28-32.186 12.28-44.457 0l-292.159-292.155z"  horiz-adv-x="1024" />

    
    <glyph glyph-name="folder" unicode="&#59015;" d="M960 706.992h-480v58c0 35.344-28.656 64-64 64h-352c-35.344 0-64-28.656-64-64v-762c0-35.344 28.656-64 64-64h896c35.344 0 64 28.656 64 64v640c0 35.344-28.656 64-64 64zM96 780.992h288c35.344 0 48-12.656 48-48v-74h496c35.344 0 48-12.656 48-48v-88.912h-928v210.912c0 35.344 12.656 48 48 48zM928-13.008h-832c-35.344 0-48 12.656-48 48v439.104h928v-439.088c0-35.344-12.656-48.016-48-48.016z"  horiz-adv-x="1024" />

    
    <glyph glyph-name="shaixuan" unicode="&#58903;" d="M905.776 58.111l-465.554 0c-14.287 0-25.864 12.161-25.864 27.158l0 54.315c0 14.997 11.577 27.157 25.864 27.157l465.554 0c14.281 0 25.864-12.161 25.864-27.157l0-54.315c0-14.997-11.582-27.158-25.864-27.158l0 0zM905.776 329.685l-465.554 0c-14.287 0-25.864 12.161-25.864 27.157l0 54.315c0 14.997 11.577 27.157 25.864 27.157l465.554 0c14.281 0 25.864-12.161 25.864-27.157l0-54.315c0-14.998-11.582-27.157-25.864-27.157l0 0zM905.776 601.259l-465.554 0c-14.287 0-25.864 12.161-25.864 27.157l0 54.315c0 14.997 11.577 27.158 25.864 27.158l465.554 0c14.281 0 25.864-12.161 25.864-27.158l0-54.315c0-14.997-11.582-27.157-25.864-27.157l0 0zM285.038 58.111l-51.729 0c-14.287 0-25.864 12.161-25.864 27.158l0 54.315c0 14.997 11.577 27.157 25.864 27.157l51.729 0c14.281 0 25.864-12.161 25.864-27.157l0-54.315c0-14.997-11.581-27.158-25.864-27.158l0 0zM285.038 329.685l-51.729 0c-14.287 0-25.864 12.161-25.864 27.157l0 54.315c0 14.997 11.577 27.157 25.864 27.157l51.729 0c14.281 0 25.864-12.161 25.864-27.157l0-54.315c0-14.998-11.581-27.157-25.864-27.157l0 0zM285.038 601.259l-51.729 0c-14.287 0-25.864 12.161-25.864 27.157l0 54.315c0 14.997 11.577 27.158 25.864 27.158l51.729 0c14.281 0 25.864-12.161 25.864-27.158l0-54.315c0-14.997-11.581-27.157-25.864-27.157l0 0z"  horiz-adv-x="1138" />

    
    <glyph glyph-name="quan" unicode="&#59057;" d="M512 793.6C285.77792 793.6 102.4 610.2016 102.4 384c0-226.22208 183.37792-409.6 409.6-409.6s409.6 183.37792 409.6 409.6C921.6 610.2016 738.22208 793.6 512 793.6zM512 48.64c-185.20064 0-335.33952 150.13888-335.33952 335.36 0 185.20064 150.13888 335.33952 335.33952 335.33952S847.33952 569.20064 847.33952 384C847.33952 198.77888 697.20064 48.64 512 48.64z"  horiz-adv-x="1024" />

    
    <glyph glyph-name="gengduo" unicode="&#58923;" d="M204.8 486.4C148.224 486.4 102.4 440.576 102.4 384 102.4 327.424 148.224 281.6 204.8 281.6 261.376 281.6 307.2 327.424 307.2 384 307.2 440.576 261.376 486.4 204.8 486.4ZM512 486.4C455.424 486.4 409.6 440.576 409.6 384 409.6 327.424 455.424 281.6 512 281.6 568.5248 281.6 614.4 327.424 614.4 384 614.4 440.576 568.5248 486.4 512 486.4ZM819.2 486.4C762.624 486.4 716.8 440.576 716.8 384 716.8 327.424 762.624 281.6 819.2 281.6 875.776 281.6 921.6 327.424 921.6 384 921.6 440.576 875.776 486.4 819.2 486.4Z"  horiz-adv-x="1024" />

    
    <glyph glyph-name="icon2" unicode="&#58886;" d="M1007.090481 496.974966c-2.748758 7.630069-9.707244 12.686576-17.495392 12.686576l-321.520124 0.023158L521.53595 867.693833c-2.974297 7.204163-9.707244 11.859935-17.182255 11.859935l-0.046316 0c-7.498169-0.025172-14.24924-4.747397-17.15507-11.998883l-143.66037-357.869178-324.35648-0.023158c-7.765997 0-14.724483-5.032342-17.473241-12.662411-2.743724-7.630069-0.696755-16.232776 5.137056-21.617523l268.105611-247.680224-88.40127-330.816565c-2.093285-7.819361 0.631308-16.185453 6.84773-21.028503 6.211388-4.84305 14.636885-5.147125 21.166444-0.779318l289.834897 194.100585 289.863089-194.100585c3.061895-2.056031 6.54869-3.071964 10.039512-3.071964 3.850275 0 7.701557 1.22939 10.942675 3.711327 6.216422 4.722225 9.052778 12.923191 7.161874 20.71738L778.361585 77.020102c-0.110756 0.450071-0.225539 0.900143-0.359453 1.34518-7.770024 24.404542-16.12202 67.664759-9.389073 82.924898 4.321491 9.827062 0.225539 21.477568-9.144403 25.987343-9.365915 4.537968-20.442504 0.26078-24.768022-9.565276-7.138716-16.232776-7.765997-39.64555-1.914062-71.607666 3.560296-19.513162 8.443621-35.812392 9.568296-39.407928l32.10912-131.917232L514.420392 108.938923c-6.12379 4.108034-13.986447 4.108034-20.110237 0L235.662085-64.279155l78.380888 293.252217c1.932186 7.252493-0.271855 15.027551-5.630423 20.011563L68.583907 470.489221l287.293554 0.024165c7.521327 0 14.295556 4.72726 17.200379 11.979752L504.533925 809.9095l134.088046-327.536179c2.951139-7.20517 9.684086-11.859935 17.159097-11.859935l284.075594-0.024165L703.831978 254.089462c-7.746866-7.112538-8.558404-19.48799-1.75699-27.641633 6.779263-8.151628 18.574758-8.980283 26.344783-1.867746l273.469214 250.752188C1007.740919 480.698894 1009.811046 489.320732 1007.090481 496.974966L1007.090481 496.974966zM1007.090481 496.974966"  horiz-adv-x="1024" />

    
    <glyph glyph-name="wujiaoxing" unicode="&#58919;" d="M913.22368 460.45184c12.02176 11.71456 16.65024 25.45664 12.6976 37.66272-3.97312 12.20608-15.79008 20.5824-32.41984 23.01952l-209.03936 30.37184c-17.32608 2.51904-39.34208 18.49344-47.104 34.2016l-93.47072 189.41952c-7.41376 15.07328-19.06688 23.71584-31.90784 23.71584s-24.45312-8.64256-31.88736-23.71584l-93.4912-189.41952c-7.76192-15.70816-29.75744-31.68256-47.104-34.2016L130.47808 521.13408c-16.62976-2.43712-28.44672-10.81344-32.41984-23.01952-3.95264-12.20608 0.67584-25.94816 12.6976-37.66272l151.26528-147.43552c12.53376-12.24704 20.95104-38.11328 17.98144-55.37792l-35.69664-208.1792c-2.84672-16.56832 1.47456-30.39232 11.85792-37.94944 5.09952-3.70688 11.18208-5.55008 17.79712-5.55008 6.90176 0 14.37696 2.02752 21.95456 5.98016l186.96192 98.304c15.50336 8.15104 42.7008 8.15104 58.22464 0l186.96192-98.28352c14.90944-7.84384 29.3888-7.9872 39.75168-0.43008 10.36288 7.53664 14.70464 21.38112 11.85792 37.94944l-35.69664 208.15872c-2.99008 17.28512 5.44768 43.15136 17.98144 55.3984L913.22368 460.45184zM713.68704 252.43648l35.71712-208.1792c0.79872-4.64896 0.3072-7.04512 0.512-7.59808-0.96256 0-3.3792 0.3072-7.55712 2.47808l-186.96192 98.304c-24.35072 12.77952-62.48448 12.75904-86.81472 0l-186.96192-98.304c-4.17792-2.17088-6.59456-2.47808-7.0656-2.82624-0.3072 0.90112-0.77824 3.29728 0.02048 7.94624l35.71712 208.1792c4.62848 27.11552-7.14752 63.3856-26.8288 82.57536l-151.26528 147.43552c-3.3792 3.29728-4.38272 5.50912-4.87424 5.85728 0.75776 0.53248 2.88768 1.7408 7.5776 2.41664l209.01888 30.37184c27.21792 3.95264 58.0608 26.37824 70.22592 51.01568l93.47072 189.41952c2.10944 4.23936 3.8912 5.89824 4.07552 6.4512 0.75776-0.55296 2.56-2.21184 4.64896-6.4512l93.4912-189.41952c12.16512-24.63744 43.008-47.06304 70.20544-51.01568l209.03936-30.37184c4.7104-0.67584 7.29088-1.4336 7.3728-1.86368-0.28672-0.90112-1.29024-3.11296-4.68992-6.41024l-151.26528-147.43552C720.83456 315.82208 709.03808 279.552 713.68704 252.43648"  horiz-adv-x="1024" />

    
    <glyph glyph-name="kongzhitaijihuo" unicode="&#58887;" d="M2226.81088 463.1552M906.17856 506.88c54.76352 0 101.1712-34.95936 117.82144-83.456C984.90368 667.9552 770.72384 855.04 512 855.04S39.09632 667.9552 0 423.424C16.65024 471.92064 63.05792 506.88 117.82144 506.88c68.75136 0 124.47744-55.00928 124.47744-122.88 0 67.87072 55.72608 122.88 124.47744 122.88s124.47744-55.00928 124.47744-122.88l41.49248 0c0 67.87072 55.72608 122.88 124.47744 122.88s124.47744-55.00928 124.47744-122.88C781.70112 451.87072 837.4272 506.88 906.17856 506.88zM512 855.04m-40.96 0a2 2 0 1 0 81.92 0 2 2 0 1 0-81.92 0ZM491.52 384.28672l0-5.40672 0-35.55328 0-353.5872 0 0C491.49952-52.67456 457.1136-87.04 414.72-87.04c-42.41408 0-76.77952 34.36544-76.8 76.75904l0 0c0 0.02048 0 0.02048 0 0.04096 0 11.30496-9.17504 20.48-20.48 20.48s-20.48-9.17504-20.48-20.48c0-0.02048 0-0.02048 0-0.04096l0 0C296.98048-75.30496 349.696-128 414.72-128c65.00352 0 117.69856 52.67456 117.76 117.6576l0 0L532.48 343.32672 532.48 378.88l0 5.40672L491.52 384.28672z"  horiz-adv-x="1024" />

    
    <glyph glyph-name="htmal5icon31-copy" unicode="&#58888;" d="M514.030 818.394c-173.676 0-320.037-120.353-367.152-284.752-42.124-25.367-66.754-74.229-66.754-131.424 0-82.943 50.566-150.199 133.51-150.199 18.457 0 33.377 14.919 33.377 33.377v233.643c0 15.354-10.898 27.405-25.034 31.291 48.735 119.622 161.231 203.394 292.052 203.394 130.821 0 243.319-83.773 292.052-203.394-14.134-3.888-25.034-15.938-25.034-31.291v-233.643c0-18.457 14.919-33.377 33.377-33.377 7.765 0 14.721 0.949 21.903 2.086-10.796-62.282-36.951-108.694-63.626-140.812-16.637-20.032-33.697-34.548-46.938-43.808-6.621-4.63-11.771-7.506-15.646-9.388-1.939-0.941-3.523-1.798-4.172-2.086h-62.582c-12.020 34.852-50.273 60.497-95.961 60.497-55.301 0-100.132-37.359-100.132-83.443s44.831-83.443 100.132-83.443c45.687 0 83.939 25.646 95.961 60.497h65.711c11.282 0 14.15 3.002 20.861 6.258 6.709 3.257 14.593 7.716 22.947 13.558 16.706 11.685 36.867 28.725 56.323 52.153 35.189 42.369 67.957 105.315 76.142 189.835 39.356 26.122 62.582 73.151 62.582 128.293 0 57.195-24.63 106.057-66.754 131.424-47.11 164.4-193.474 284.753-367.15 284.753z"  horiz-adv-x="1024" />

    
    <glyph glyph-name="youhuiquan" unicode="&#59004;" d="M931.680896 469.043908c15.359826 1.923816 26.892487 14.981203 26.892487 30.463826l0 141.011594c0 21.264303-17.304108 38.568411-38.568411 38.568411l-816.004829 0c-21.274536 0-38.568411-17.304108-38.568411-38.568411l0-141.011594c0-15.482623 11.522428-28.54001 26.882254-30.463826 42.395576-5.300726 74.363661-41.556465 74.363661-84.330664 0-42.773176-31.968086-79.040171-74.363661-84.35113-15.359826-1.923816-26.882254-14.981203-26.882254-30.463826l0-142.423757c0-21.264303 17.293875-38.568411 38.568411-38.568411l816.004829 0c21.264303 0 38.568411 17.304108 38.568411 38.568411l0 142.423757c0 15.482623-11.523451 28.54001-26.883277 30.463826-42.404786 5.310959-74.373894 41.577954-74.373894 84.35113C857.317235 427.487444 889.285321 463.743182 931.680896 469.043908zM897.175011 245.420805l0-95.116311-770.344906 0 0 95.116311c59.259662 19.21769 101.245915 74.977645 101.245915 139.29244s-41.986253 120.074749-101.245915 139.282207l0 93.693916 770.344906 0 0-93.693916c-59.269895-19.207457-101.256148-74.967412-101.256148-139.282207S837.894883 264.628262 897.175011 245.420805zM660.371724 557.283602l-87.953168-144.521534 59.259662 0c5.64865 0 10.233062-4.574179 10.233062-10.233062l0-35.365462c0-5.64865-4.584412-10.233062-10.233062-10.233062l-87.22662 0 0-22.737864 87.22662 0c5.64865 0 10.233062-4.584412 10.233062-10.233062l0-35.82595c0-5.649674-4.584412-10.233062-10.233062-10.233062l-87.22662 0 0-81.782631c0-5.649674-4.583388-10.233062-10.233062-10.233062l-44.431955 0c-5.658883 0-10.233062 4.583388-10.233062 10.233062l0 81.782631-90.409103 0c-5.64865 0-10.233062 4.583388-10.233062 10.233062l0 35.82595c0 5.64865 4.584412 10.233062 10.233062 10.233062l90.409103 0 0 22.737864-90.409103 0c-5.64865 0-10.233062 4.584412-10.233062 10.233062l0 35.365462c0 5.658883 4.584412 10.233062 10.233062 10.233062l60.610426 0-86.172615 144.603399c-1.882883 3.162016-1.923816 7.091512-0.112564 10.29446 1.821485 3.192715 5.218862 5.177929 8.902764 5.177929l50.101071 0c3.735068 0 7.18361-2.046612 8.974395-5.321192 24.436552-44.626383 47.133483-80.288604 63.700811-106.321514 7.315616-11.491729 13.507642-21.223371 18.316158-29.30749 19.883863 34.383088 65.706491 109.3812 82.049714 136.058792 1.861394 3.039219 5.167696 4.891404 8.727779 4.891404l47.390333 0c3.694135 0 7.100722-1.995447 8.912997-5.229095C662.355915 564.385347 662.29554 560.435385 660.371724 557.283602z"  horiz-adv-x="1024" />

    
    <glyph glyph-name="gou" unicode="&#58897;" d="M506.005148 879.500897c-277.28554 0-502.073567-224.776915-502.073567-502.073567 0-277.274428 224.788027-502.073567 502.073567-502.073567s502.073567 224.799139 502.073567 502.073567C1008.078714 654.724992 783.290687 879.500897 506.005148 879.500897L506.005148 879.500897zM775.130536 509.962614l-312.405102-312.403081c-13.060485-13.072607-34.265969-13.072607-47.327464 0L259.193399 353.763093c-13.071597 13.072607-13.071597 34.279101 0 47.329484 13.067556 13.072607 34.27304 13.072607 47.334535 0L439.063217 268.557294l288.732783 288.739855c13.066546 13.071597 34.266979 13.071597 47.334535 0C788.202133 544.240705 788.202133 523.035221 775.130536 509.962614L775.130536 509.962614zM775.130536 509.962614"  horiz-adv-x="1024" />

    
    <glyph glyph-name="meiriqiandao" unicode="&#58925;" d="M215.5625 384.866667c0 30.979167 25.104167 56.083333 56.091667 56.083333 30.925 0 56.091667-25.104167 56.091667-56.083333 0-30.9875-25.166667-56.091667-56.091667-56.091667C240.666667 328.770833 215.5625 353.875 215.5625 384.866667L215.5625 384.866667zM215.5625 191.895833c0 30.916667 25.104167 56.083333 56.091667 56.083333 30.925 0 56.091667-25.166667 56.091667-56.083333 0-31.0625-25.166667-56.166667-56.091667-56.166667C240.666667 135.729167 215.5625 160.833333 215.5625 191.895833zM418.675 385.970833c0 30.9875 25.154167 56.091667 56.145833 56.091667 30.925 0 56.091667-25.104167 56.091667-56.091667s-25.166667-56.029167-56.091667-56.029167C443.833333 329.875 418.675 354.979167 418.675 385.970833L418.675 385.970833zM418.675 193c0 30.979167 25.154167 56.145833 56.145833 56.145833 30.925 0 56.091667-25.166667 56.091667-56.145833 0-31-25.166667-56.104167-56.091667-56.104167C443.833333 136.895833 418.675 162 418.675 193L418.675 193zM383.958333 692.520833l199.895833 0 0-59.695833L383.958333 632.825 383.958333 692.520833 383.958333 692.520833zM662.666667 533.45c21.791667 0 40.708333 17.708333 40.708333 39.4875L703.375 752.575c0 21.841667-18.916667 39.55-40.708333 39.55-21.770833 0-39.479167-17.708333-39.479167-39.55l0-179.633333C623.1875 551.158333 640.895833 533.45 662.666667 533.45zM304.041667 533.45c21.779167 0 40.716667 17.708333 40.716667 39.4875L344.758333 752.575c0 21.841667-18.9375 39.55-40.716667 39.55-21.841667 0-39.4875-17.708333-39.4875-39.55l0-179.633333C264.4875 551.158333 282.195833 533.45 304.041667 533.45zM862.391667 601.541667l0-108.8625 59.875 0L922.266667 598.458333c0 51.770833-47.0625 94.125-104.541667 94.125L743.458333 692.583333l0-53.354167 77.125 0C843.2875 639.229167 862.391667 621.979167 862.391667 601.541667zM862.745833 184.145833l0-122.958333-0.354167 0 0-11.375c0-20.375-19.104167-37.625-41.8125-37.625L147.2375 12.1875c-22.708333 0-41.875 17.25-41.875 37.625L105.3625 424l0.345833 0 0 53.416667L105.416667 477.416667 105.416667 601.541667c0 20.383333 19.166667 37.625 41.883333 37.625l77.645833 0L224.945833 692.520833l-74.208333 0c-57.55 0-104.6125-42.341667-104.6125-94.0625l0-545.833333c0-51.791667 45.3125-94.083333 102.8625-94.083333l668.7375 0c57.479167 0 104.541667 42.354167 104.541667 94.083333l0 131.583333-59.520833 0L862.745833 184.145833zM930.370833 420.395833l-184.708333-184.708333-72.979167 72.979167c-10.958333 10.958333-28.604167 10.958333-39.541667 0-10.958333-10.9375-10.958333-28.583333 0-39.541667l87.416667-87.4375c5.833333-5.875 16.4375-8.5 25.229167-8.020833 8.6875-0.479167 19.166667 2.145833 24.979167 8.020833l199.145833 199.154167c10.958333 10.945833 10.958333 28.591667 0 39.55C958.975 431.345833 941.266667 431.345833 930.370833 420.395833L930.370833 420.395833zM892.329167 464.366667c16.541667 0 29.9375 12.695833 29.9375 28.3125l-59.8125 0C862.454167 477.0125 875.7875 464.366667 892.329167 464.366667zM892.516667 212.5c-16.5 0-29.833333-12.625-29.833333-28.291667l59.541667 0C922.266667 199.875 908.933333 212.5 892.516667 212.5z"  horiz-adv-x="1024" />

    
    <glyph glyph-name="pinglun" unicode="&#58994;" d="M264.122493 114.172575c-97.31028 60.013839-155.293879 159.476131-155.293879 266.75239 0 177.342034 157.6526 321.617975 351.434048 321.617975 193.767122 0 351.407442-144.275941 351.407442-321.617975 0-177.351244-157.64032-321.646628-351.407442-321.646628-23.113417 0-46.421262 2.1295-69.315692 6.324032l-126.887922-87.702458L264.122493 114.172575 264.122493 114.172575zM312.014246 65.929828l15.427364 11.099802-0.37146 0 54.156434 39.195697 0.183172 0 0.553609 0.49221 2.24411-0.49221 0.38988 0 0.636496-0.226151c14.104229-3.224438 29.859052-5.567809 48.15986-7.142677l16.832364-1.436722c3.521197-0.13917 6.817266-0.201591 10.035564-0.201591 167.643138 0 304.030411 122.787534 304.030411 273.706779 0 150.918221-136.385227 273.699616-304.030411 273.699616-167.654394 0-304.052924-122.781394-304.052924-273.699616 0-9.066493 0.645706-18.784832 1.978051-29.722952l0.476861-4.415566c1.255597-8.928347 3.044336-17.923208 5.455245-27.378557l1.238201-4.640694c2.693342-9.651824 5.622044-18.382673 8.958022-26.691919l1.147126-2.670829c7.52744-18.105357 17.276479-35.574217 28.987195-51.952232 0.576121-0.843204 1.080611-1.562589 1.584078-2.26253 5.53711-7.589862 11.799744-15.257495 18.602683-22.759353l2.018983-2.166339c7.393387-7.982812 14.464433-14.893198 21.703301-21.203928 0.400113-0.322341 0.648776-0.521886 0.88823-0.737804 7.987928-6.960529 16.371876-13.511735 24.864294-19.414165l0.469698-0.328481 0.121773-0.125867c10.193153-7.080256 20.8734-13.599739 31.772634-19.386536l0.506537 0 1.435699-1.02126 3.238764-1.877767 0.23843-3.89368-0.352017-71.66418 0.470721 0.378623L312.014246 65.929828 312.014246 65.929828zM806.132994 252.564505c11.313673 25.87839 19.169595 53.457516 23.346731 81.982176l0.188288 1.304715 0.686638 1.12052c24.486694 40.154535 37.432541 85.624123 37.432541 131.493823 0 150.927431-136.39853 273.715989-304.048831 273.715989-35.700083 0-71.285556-5.850242-105.776092-17.386996l-0.971118-0.324388-1.014096-0.00921c-35.232432-0.356111-69.995167-5.226025-103.300714-14.46648l-5.486968 11.45489c62.554708 44.909839 137.432069 68.64952 216.547964 68.64952 193.780425 0 351.433024-144.285151 351.433024-321.633325 0-83.566254-35.050284-162.821319-98.686626-223.165686L806.132994 252.564505 806.132994 252.564505z"  horiz-adv-x="1024" />

    
    <glyph glyph-name="yaoqing" unicode="&#59073;" d="M71.469769-50.596729c17.532757 210.708639 172.310612 325.807098 358.773653 350.392163 18.489002 2.433644 36.954097-1.496524 54.82154-4.293541 0.100406 0 0.200812 0 0.301217 0 157.25453 0 285.252737 127.950395 285.252737 285.252737 0 157.25453-127.998207 285.247956-285.252737 285.247956s-285.247956-127.945614-285.247956-285.247956c0-110.628012 63.432528-206.515504 155.700632-253.825737-172.358424-53.879638-311.291295-207.596061-311.291295-368.536917 0-14.319773 3.241671-25.933371 17.5471-25.933371 3.466389 0 6.751091 0.70284 9.763264 1.936397C71.641894-60.618179 71.049022-55.617016 71.469769-50.596729zM229.474952 580.90763c0 142.346667 115.394895 257.746343 257.741562 257.746343 142.337104 0 257.731999-115.394895 257.731999-257.746343 0-142.337104-115.394895-257.731999-257.731999-257.731999C344.869847 323.175631 229.474952 438.575307 229.474952 580.90763zM926.20958 45.3577c0-9.24211-7.496963-16.739073-16.748635-16.739073l-271.697961 0c-9.246892 0-16.739073 7.496963-16.739073 16.739073l0 0c0 9.261235 7.496963 16.758198 16.739073 16.758198l271.697961 0C918.712617 62.115898 926.20958 54.614154 926.20958 45.3577L926.20958 45.3577zM773.626308 197.960097c9.24211 0 16.739073-7.496963 16.739073-16.743854l0-271.697961c0-9.246892-7.496963-16.743854-16.739073-16.743854l0 0c-9.261235 0-16.758198 7.496963-16.758198 16.743854l0 271.697961C756.86811 190.463135 764.365073 197.960097 773.626308 197.960097L773.626308 197.960097z"  horiz-adv-x="1055" />

    
    <glyph glyph-name="xin1" unicode="&#58921;" d="M511.745708 3.983987 361.433284 160.300148 156.276764 332.163401c-56.256258 46.366004-92.111884 116.661-92.111884 195.174168 0 139.535987 113.130593 252.580622 252.670673 252.580622 78.512145 0 148.634202-35.768645 194.910155-91.935875 46.278 56.167231 116.487038 91.935875 195.000206 91.935875 139.534963 0 252.667603-113.044636 252.667603-252.580622 0-68.531839-27.28953-130.794905-71.622224-176.188768L666.825716 162.684452l-155.082054-158.703535L511.745708 3.983987 511.745708 3.983987z"  horiz-adv-x="1024" />

    
    <glyph glyph-name="faxian" unicode="&#58889;" d="M489.073848 19.316184c-189.06503 0-342.878185 153.813155-342.878185 342.867952s153.813155 342.867952 342.878185 342.867952c189.054797 0 342.867952-153.813155 342.867952-342.867952S678.128645 19.316184 489.073848 19.316184zM489.073848 664.204773c-166.537967 0-302.030871-135.483694-302.030871-302.021661s135.493927-302.021661 302.030871-302.021661S791.094486 195.646168 791.094486 362.184135 655.610792 664.204773 489.073848 664.204773zM493.351268 105.43661c-23.245424-0.020466-46.620807 3.230578-69.597101 9.772574-64.87966 18.489096-118.670773 61.149708-151.478993 120.106472-5.484921 9.852392-1.935072 22.297842 7.918343 27.782763 9.882068 5.484921 22.297842 1.914606 27.782763-7.918343 27.493168-49.422619 72.588225-85.183078 126.97695-100.680027 54.369282-15.517415 111.559818-8.915044 160.973228 18.608823 49.422619 27.483958 85.173868 72.577992 100.680027 126.96774 15.507182 54.388724 8.904811 111.570052-18.59859 160.973228-5.484921 9.852392-1.935072 22.297842 7.918343 27.782763 9.882068 5.484921 22.297842 1.914606 27.782763-7.918343 32.79901-58.95574 40.677445-127.146818 22.178115-192.026478-18.489096-64.87966-61.149708-118.670773-120.096239-151.478993C577.707514 116.227374 535.76424 105.43661 493.351268 105.43661zM489.073848 748.550787c-11.278881 0-20.423145 9.135054-20.423145 20.423145L468.650703 811.755294c0 11.289114 9.144264 20.423145 20.423145 20.423145 11.278881 0 20.423145-9.135054 20.423145-20.423145L509.496993 768.973932C509.496993 757.685841 500.352729 748.550787 489.073848 748.550787zM285.698904 694.042335c-7.060813 0-13.921058 3.650133-17.701151 10.211573l-21.400403 37.056987c-5.644557 9.772574-2.303462 22.257933 7.469112 27.90249 9.763364 5.664 22.257933 2.313695 27.892257-7.479345l21.400403-37.056987c5.644557-9.772574 2.303462-22.257933-7.469112-27.90249C292.678876 694.919309 289.158702 694.042335 285.698904 694.042335zM692.448792 694.042335c-3.460822 0-6.970762 0.877997-10.19213 2.732228-9.763364 5.644557-13.113669 18.129916-7.479345 27.90249l21.390169 37.056987c5.634324 9.753131 18.079774 13.143345 27.90249 7.479345 9.763364-5.644557 13.113669-18.129916 7.479345-27.90249l-21.390169-37.056987C706.369849 697.711911 699.509604 694.042335 692.448792 694.042335zM591.189573-63.474404 386.957099-63.474404c-11.278881 0-20.423145 9.135054-20.423145 20.423145s9.144264 20.423145 20.423145 20.423145l204.232474 0c11.278881 0 20.423145-9.135054 20.423145-20.423145S602.468454-63.474404 591.189573-63.474404z"  horiz-adv-x="1024" />

    
    <glyph glyph-name="23234234234" unicode="&#58890;" d="M1017.449483 587.090122 872.73603 842.150894c-9.440452 16.593039-30.44064 29.140169-48.815804 29.140169L213.782879 871.291063c-18.42333 0-39.399436-12.547131-48.815804-29.140169L20.277705 587.090122c-3.082596-5.442709-5.996613-10.572342-8.139981-14.521919-1.083725-1.950706-1.950706-3.540169-2.528692-4.67206-1.348636-2.576858-5.490875-10.37968-0.746566-19.145814l4.912888-9.006961 1.998871 0c2.311947-2.962183 5.394544-6.984008 9.151458-11.896896l466.892944-611.148824c2.889934-3.829163 6.357855-6.911759 10.138852-9.295955l4.599812-2.408278c4.021825-1.758043 8.284478-2.649106 12.667545-2.649106 4.358984 0 8.64572 0.891063 12.667545 2.649106l4.599812 2.408278c3.780997 2.33603 7.248918 5.466792 10.11477 9.295955l466.917027 611.148824C1025.782126 543.933772 1027.492004 569.389276 1017.449483 587.090122zM820.50047 835.624459l-105.386265-242.41731L552.025588 835.624459 820.50047 835.624459zM685.468297 575.409972 352.571966 575.409972 519.032173 822.788335 685.468297 575.409972zM486.062841 835.624459 322.950141 593.20715 217.563876 835.624459 486.062841 835.624459zM189.14619 815.057761l104.182126-239.647789L53.174788 575.409972 189.14619 815.057761zM59.388147 539.743368l248.004516 0 167.230856-543.572531L59.388147 539.743368zM519.200753-32.656256l-176.117404 572.399624 351.873565 0L519.200753-32.656256zM563.681656-3.925494l166.990028 543.668862 248.365757 0L563.681656-3.925494zM744.711947 575.409972l104.037629 239.334713 135.802822-239.334713L744.711947 575.409972z"  horiz-adv-x="1024" />

    
    <glyph glyph-name="erweima" unicode="&#58899;" d="M998.233687 409.690588 25.61691 409.690588c-14.135938 0-25.594909-11.458971-25.594909-25.594909s11.458971-25.594909 25.594909-25.594909l972.616777 0c14.135938 0 25.594909 11.458971 25.594909 25.594909S1012.369625 409.690588 998.233687 409.690588zM25.61691 537.666157c14.135938 0 25.594909 11.458971 25.594909 25.594909L51.211819 844.809159l281.54707 0c14.135938 0 25.594909 11.458971 25.594909 25.594909s-11.458971 25.594909-25.594909 25.594909L25.61691 895.998977c-14.135938 0-25.594909-11.458971-25.594909-25.594909l0-307.141979C0.022001 549.125128 11.480972 537.666157 25.61691 537.666157zM998.233687 230.524178c-14.135938 0-25.594909-11.458971-25.594909-25.594909l0-281.54707L691.091709-76.617801c-14.135938 0-25.594909-11.458971-25.594909-25.594909s11.458971-25.594909 25.594909-25.594909l307.141979 0c14.135938 0 25.594909 11.458971 25.594909 25.594909L1023.828596 204.929269C1023.828596 219.065207 1012.369625 230.524178 998.233687 230.524178zM998.233687 895.998977 691.091709 895.998977c-14.135938 0-25.594909-11.458971-25.594909-25.594909s11.458971-25.594909 25.594909-25.594909l281.54707 0 0-281.54707c0-14.135938 11.458971-25.594909 25.594909-25.594909s25.594909 11.458971 25.594909 25.594909L1023.828596 870.404068C1023.828596 884.540005 1012.369625 895.998977 998.233687 895.998977zM332.758889-76.617801 51.211819-76.617801 51.211819 204.929269c0 14.135938-11.458971 25.594909-25.594909 25.594909s-25.594909-11.458971-25.594909-25.594909l0-307.141979c0-14.135938 11.458971-25.594909 25.594909-25.594909l307.141979 0c14.135938 0 25.594909 11.458971 25.594909 25.594909S346.89585-76.617801 332.758889-76.617801z"  horiz-adv-x="1024" />

    
    <glyph glyph-name="zhaoxiangji" unicode="&#59003;" d="M1200.64-128h-1129.984c-38.912 0-70.656 31.744-70.656 70.656v741.376c0 38.912 31.744 70.656 70.656 70.656h229.888l123.392 123.392 15.36 17.92h408.576l141.312-141.312h211.968c38.912 0 70.656-31.744 70.656-70.656 0 0 0 0 0 0v-741.376c-0.512-38.912-32.256-70.656-71.168-70.656v0 0zM305.664 699.904h-221.184c-20.48 0-36.864-16.384-36.864-36.864v0-700.928c0-20.48 16.384-36.864 36.864-36.864 0 0 0 0 0 0h1106.944c20.48 0 36.864 16.384 36.864 36.864v700.416c0 20.48-16.384 36.864-36.864 36.864h-215.040l-147.968 147.968h-356.352l-147.456-147.456M638.976 31.744c-156.16 0-282.624 126.464-282.624 282.624s126.464 282.624 282.624 282.624 282.624-126.464 282.624-282.624c0-156.16-126.464-282.624-282.624-282.624zM638.976 549.376c-129.536 0-235.008-104.96-235.008-235.008s104.96-235.008 235.008-235.008 235.008 104.96 235.008 235.008-104.96 235.008-235.008 235.008z"  horiz-adv-x="1271" />

    
    <glyph glyph-name="huangguan" unicode="&#58891;" d="M140.167 556.535c0-20.907-16.943-37.85-37.85-37.85-20.908 0-37.851 16.944-37.851 37.85 0 20.909 16.944 37.851 37.851 37.851 20.907 0.001 37.85-16.942 37.85-37.851zM551.156 673.748c0-20.908-16.952-37.85-37.849-37.85-20.91 0-37.853 16.943-37.853 37.85 0 20.907 16.943 37.851 37.853 37.851 20.897 0.001 37.849-16.944 37.849-37.851zM958.409 556.535c0-20.907-16.969-37.85-37.869-37.85-20.899 0-37.835 16.944-37.835 37.85 0 20.909 16.936 37.851 37.835 37.851 20.9 0.001 37.869-16.942 37.869-37.851zM140.167 508.34l52.664-336.8h623.144l66.73 336.8-186.907-119.675-182.491 220.56-185.466-210.676zM818.931 90.691c0-14.344-11.632-25.977-25.976-25.977h-574.147c-14.345 0-25.976 11.633-25.976 25.977v0c0 14.345 11.632 25.976 25.976 25.976h574.148c14.343-0 25.975-11.631 25.975-25.976v0z"  horiz-adv-x="1024" />

    
    <glyph glyph-name="daifukuan" unicode="&#59243;" d="M901.565217 7.791304h-823.652174V606.608696h823.652174v-117.982609h66.782609v151.373913c0 17.808696-15.582609 33.391304-33.391304 33.391304h-115.756522V793.6c0 17.808696-15.582609 33.391304-33.391304 33.391304H44.521739c-17.808696 0-33.391304-15.582609-33.391304-33.391304v-821.426087c0-17.808696 15.582609-33.391304 33.391304-33.391304h890.434783c17.808696 0 33.391304 15.582609 33.391304 33.391304v155.826087h-66.782609v-120.208696zM752.417391 760.208696V673.391304H77.913043V760.208696h674.504348zM979.478261 441.878261H678.956522c-73.46087 0-133.565217-60.104348-133.565218-133.565218s60.104348-133.565217 133.565218-133.565217H979.478261c17.808696 0 33.391304 15.582609 33.391304 33.391304v200.347827c0 17.808696-15.582609 33.391304-33.391304 33.391304z m-33.391304-200.347826h-267.130435c-37.843478 0-66.782609 28.93913-66.782609 66.782608s28.93913 66.782609 66.782609 66.782609h267.130435v-133.565217zM670.052174 341.704348h66.782609v-66.782609h-66.782609z"  horiz-adv-x="1024" />

    
    <glyph glyph-name="biaoqian" unicode="&#58960;" d="M481.173412-37.74951L65.116555 339.835128l410.30997 397.536038 387.673413-26.961048v-351.909885L481.173412-37.74951zM124.949268 340.811362l354.318748-321.55453L822.168714 375.016395V672.22647l-331.36906 23.045879L124.949268 340.811362zM482.177276 457.794703l28.537963-29.344328-179.760107-174.821631-28.537963 29.345352zM681.50709 463.147618c-46.701648 0-84.697007 37.20332-84.697007 82.932827 0 45.704948 37.995359 82.887802 84.697007 82.887803 46.700625 0 84.694961-37.182854 84.694961-82.887803 0-45.729507-37.994336-82.932828-84.694961-82.932827z m0 124.888382c-24.131607 0-43.764759-18.821671-43.764759-41.955555 0-23.159466 19.633153-42.00058 43.764759-42.000579 24.130583 0 43.762713 18.842137 43.762713 42.000579 0 23.133883-19.632129 41.955554-43.762713 41.955555zM785.793248 464.608899c-25.232684 0-50.830689 5.634324-74.940806 17.533329-19.868513 9.812483-37.360909 23.160489-51.997258 39.675627l30.633695 27.147291c11.106965-12.533454 24.391527-22.667256 39.484269-30.121018 63.85533-31.514761 141.489478-5.131881 173.049265 58.81657 15.300474 30.987758 17.633612 66.062602 6.571672 98.765421-11.05887 32.692586-34.181497 59.107189-65.11195 74.377988-22.620184 11.165294-47.709605 15.46625-72.54013 12.43317L765.983063 803.868673c32.763195 4.001127 65.829288-1.656733 95.617732-16.359596 40.742936-20.116153 71.202669-54.907541 85.767385-97.965196 14.561647-43.051515 11.492752-89.220021-8.642844-130.000819-29.635971-60.050678-90.14816-94.933139-152.932088-94.934163zM572.062446 372.227885l28.532846-29.344328-179.766246-174.801165-28.53387 29.343305z"  horiz-adv-x="1024" />

    
    <glyph glyph-name="sousuo" unicode="&#58976;" d="M419.788344 97.007637c-47.78226 0-94.146217 9.362228-137.804553 27.828812-42.158169 17.832134-80.016405 43.355437-112.521726 75.862805s-58.028625 70.367651-75.859735 112.528889c-18.46556 43.661406-27.828812 90.030479-27.828812 137.819902 0 47.78226 9.363252 94.14724 27.828812 137.8066 17.831111 42.159192 43.354414 80.019475 75.859735 112.526842s70.363558 58.032718 112.520703 75.865875c43.658336 18.467607 90.022293 27.831882 137.804552 27.831882s94.148263-9.363252 137.807623-27.831882c42.159192-17.833157 80.019475-43.357484 112.526842-75.865875 32.508391-32.507368 58.032718-70.366627 75.865875-112.525819 18.467607-43.660382 27.830859-90.025363 27.830859-137.807623 0-47.788399-9.363252-94.158497-27.830859-137.819902-17.833157-42.161239-43.357484-80.021521-75.865875-112.529912-32.507368-32.506345-70.366627-58.029648-112.526842-75.861782-43.659359-18.466584-90.024339-27.828812-137.806599-27.828812z m0 667.138336c-172.633802 0-313.081555-140.454916-313.081555-313.098951 0-172.648129 140.447752-313.108161 313.081555-313.108161 172.643012 0 313.098951 140.460032 313.09895 313.108161-0.001023 172.644035-140.456962 313.098951-313.09895 313.098951zM700.979584 246.984417l256.589936-256.589936-28.943193-28.943193-256.589936 256.589936z"  horiz-adv-x="1024" />

    
    <glyph glyph-name="daifahuo" unicode="&#58974;" d="M766.716262 575.30914h32.069393c2.337231 0 8.515954-2.952238 10.020215-4.901636l140.855028-176.930665c0.892323-1.057075 2.842745-6.570649 2.842745-8.019651v-216.127386c0-11.023054-4.511757-21.10262-11.804861-28.450982-7.348362-7.293103-17.368576-11.80486-28.506241-11.80486h-48.826031c-6.009877-49.824779-47.098691-88.239693-96.650248-91.638094v25.833365c40.029692 3.619434 71.708182 37.635155 71.708182 78.556147 0 41.031509-31.623231 74.826196-71.708182 78.444607V246.269126c49.493228-3.452635 90.414219-41.698704 96.594989-91.306543h48.88129c4.065596 0 7.68503 1.558495 10.300601 4.176113 2.560312 2.671852 4.230348 6.235005 4.230347 10.299577V325.999005H766.716262v25.774013h160.007227v29.342282l-71.538313 89.970104H766.716262v25.723871h67.923996l-42.089607 52.777017H766.716262v25.722848zM350.770945 710.430584c15.97995-8.90788 30.566156-19.989263 43.372834-32.791847a204.081025 204.081025 0 0 0 17.479093-19.934005h143.30687c14.20042 0 27.228131-5.845125 36.525891-15.142885v-0.055258c9.463536-9.408277 15.198144-22.270213 15.198144-36.520775V575.364399H766.716262v-25.77913H606.652753v-394.621662h49.217959c6.456039 51.944046 51.16224 91.53167 103.777574 91.531669 2.336208 0 4.617158-0.058328 7.067976-0.169869v-25.943882c-2.391467 0.280386-4.732791 0.446162-7.067976 0.446162-43.262316 0-78.83551-35.574217-78.835509-78.83551 0-43.36874 35.462676-78.831416 78.835509-78.831416 2.336208 0 4.676509 0.055259 7.067976 0.331551v-25.889647c-2.450818-0.110517-4.732791-0.221034-7.067976-0.221034-52.615335 0-97.487312 39.863916-103.888091 91.808986H394.97675c-3.729951-30.400381-20.431332-56.56632-44.205805-73.101925v34.350342c11.914354 13.808494 19.207457 31.789007 19.207458 51.497885 0 19.599384-7.237845 37.58399-19.207458 51.443649V227.675652c23.663956-16.476253 40.36636-42.476417 44.095288-72.711022h185.953155V605.929532c0 7.178493-2.948145 13.638625-7.682982 18.371416v-0.055259c-4.617158 4.787026-11.133571 7.628748-18.206664 7.628748H428.273087c14.751982-27.503401 23.213701-58.96188 23.213701-92.309382 0-53.78395-21.934568-102.665241-57.287751-138.018424-12.806677-12.861936-27.448142-23.939225-43.372833-32.847105v30.28577c9.022491 6.125511 17.483186 13.026688 25.167192 20.821211 30.676673 30.676673 49.717332 73.101925 49.717332 119.757525 0 46.710858-18.987447 89.076758-49.773613 119.813806v0.109494c-7.684006 7.68503-16.145725 14.641465-25.168216 20.822234V710.430584h0.002046zM766.716262 496.7489h-30.28577c-22.771633 0-41.47767-18.706037-41.47767-41.4746v-88.13327c0-22.491247 18.650779-41.143049 41.031509-41.143049H766.716262V351.771995h-30.731931c-8.240685 0-15.252379 6.906294-15.252379 15.312754v88.188528c0 8.572236 7.237845 15.754822 15.753799 15.754822H766.716262v25.720801zM256.180614 734.926488c34.239825 0 66.531276-8.906857 94.590331-24.551162v-30.119995c-27.056216 18.205641-59.5687 28.892027-94.590331 28.892027-10.57587 0-20.98801-0.942465-31.066553-2.836605v26.164916a197.259666 197.259666 0 0 0 31.066553 2.450819z m94.590331-678.838819c-17.037025-11.859096-37.57785-18.817578-59.628052-18.817578-24.88169 0-47.87845 8.797363-65.973574 23.603581V98.953965c14.08888-21.598924 38.414915-35.909861 65.973574-35.909861 23.774473 0 45.153386 10.580986 59.628052 27.393907v-34.350342z m0 342.89865v-30.175253c-28.059056-15.644305-60.295248-24.496927-94.590331-24.496927-10.57587 0-20.932752 0.832971-31.066553 2.450818v26.16594a167.420057 167.420057 0 0 1 31.066553-2.89698c34.961256 0 67.533093 10.746762 94.590331 28.952402z m0-171.31169v-34.350343c-14.475689 16.817014-35.853579 27.448142-59.628052 27.448142-27.499307 0-51.883671-14.421454-65.973574-36.019355v38.080294c18.0941 14.807241 41.146119 23.603581 65.973574 23.603581 22.049179 0 42.590004-6.958482 59.628052-18.762319zM225.169319 496.7489v33.68417l18.0941 15.202237V656.927019c0 18.425651 25.77913 18.425651 25.77913 0V539.620313c0-2.28095-2.781346-8.351202-4.565992-9.909697l-39.307238-32.961716z m0-435.875228c-20.377096 16.647145-34.406624 40.696888-37.799907 68.315921h-40.700981c-28.445866 0-51.718919 23.382547-51.718919 51.829436V429.606711C73.455989 460.949556 60.819181 498.864074 60.819181 539.620313c0 53.778834 21.934568 102.665241 57.287751 138.072659 28.450982 28.336372 65.643046 48.15986 107.061364 54.836933v-26.220175c-34.350342-6.345522-65.082274-23.162536-88.856747-46.877657-30.676673-30.735002-49.714262-73.15616-49.714262-119.81176s18.98233-89.081874 49.76952-119.757524h-0.109493c23.77345-23.769356 54.505381-40.530089 88.856747-46.876634v-26.110681c-40.195467 6.345522-76.329433 25.163099-104.444771 52.334949v-218.247676c0-14.305821 11.638061-25.999141 25.943882-25.99914h40.75624c3.449565 27.392884 17.479093 51.387367 37.744649 67.923995v-38.191834c-8.126075-12.305257-12.802584-27.001981-12.802584-42.816154 0-15.864316 4.676509-30.676673 12.802584-42.980907l0.055258-38.025035z m0 469.559398l-20.377096-17.092283-18.205641-15.308661c-14.029528-11.80486 2.671852-31.513738 16.647146-19.708877l21.934568 18.425651v33.68417h0.001023z m0 0"  horiz-adv-x="1024" />

    
    <glyph glyph-name="wenda" unicode="&#58969;" d="M837.199547 16.965649c-13.564947 7.458879-19.178805 18.131963-16.806781 31.974226 2.408863 13.878079 8.963139 26.879184 19.841907 39.047318 34.588773 37.865399 62.551638 82.008782 83.924411 132.427078 21.336958 50.383504 32.707936 104.669898 34.060747 162.861228 0.662079 61.539588-10.494005 119.346155-33.576723 173.462681-23.046902 54.116525-54.600549 101.464903-94.597495 142.052296-39.987736 40.587394-87.129406 72.696696-141.390217 96.369861C634.413004 818.835549 576.463174 831.039499 514.744507 831.702602h-5.26491c-59.758012 0-115.970268-11.156084-168.68998-33.505092-54.251601-22.975271-101.877295-54.287417-142.885268-93.862761-41.035602-39.540552-73.430406-86.225827-97.140411-139.993404C77.018118 510.536928 64.814168 452.874647 64.151066 391.335059c-0.653893-58.163701 9.321296-112.935142 30.030967-164.329673 20.639063-51.43137 49.514717-96.934726 86.467327-136.50086 36.926004-39.540552 80.33363-72.212672 130.189108-97.909937 49.827849-25.697265 103.551424-41.599444 161.187099-47.66151 14.925944-2.058892 30.854728-3.734044 47.804772-5.095041 16.940834-1.325182 35.770691-2.373047 56.453756-3.035126 10.324136-0.348947 21.265326-0.49221 32.807197-0.492211 11.506055 0 23.638373 0.143263 36.370349 0.492211 25.419949 0.663102 54.080709 2.721994 85.947488 6.070252 70.538543 6.759961 122.909307 15.553231 157.149132 26.396183 34.275641 10.807137 47.974641 16.914228 41.178865 18.266016-35.913954 6.069229-66.768683 15.901155-92.537579 29.430286z m-43.829228-21.793352c-19.73446-2.820232-41.840944-5.408173-66.249867-7.736195-31.382754-3.276626-59.09491-5.229095-82.804914-5.855358-12.383028-0.348947-24.094768-0.49221-35.215036-0.49221-11.022031 0-21.48022 0.143263-31.346939 0.484024-19.949354 0.626263-38.072107 1.638313-54.394864 2.927679-16.000416 1.25355-31.069623 2.820232-45.226041 4.7727-53.203736 5.613858-102.128005 20.083407-146.789181 43.094494-45.046962 23.217794-84.729753 53.069683-117.985158 88.669482-33.057907 35.421744-59.166541 76.67224-77.647451 122.658597-18.373463 45.601594-27.371394 95.116311-26.780946 147.138129 0.590448 55.226812 11.649318 107.491153 32.807196 155.402349 21.23872 48.189535 50.589189 90.550319 87.236854 125.872802 36.890188 35.600823 80.405261 64.11832 129.284505 84.86483 46.90017 19.886933 97.775884 29.959336 151.22112 29.959335h4.736884c55.370075-0.590448 108.019179-11.649318 156.521846-32.807196 48.745191-21.22951 91.634-50.455135 127.439484-86.780459 35.878139-36.361139 64.574714-79.492472 85.285409-128.138402 20.503986-48.117904 30.577413-100.417037 29.985941-155.438165-1.217734-51.67287-11.506055-100.936877-30.541596-145.884578-19.278065-45.503357-44.769646-85.768409-75.731822-119.695103-16.806781-18.829857-27.094078-39.46892-30.890544-61.709457-4.010337-23.227004 2.266623-44.814672 17.08512-61.307298zM511.189541 182.548872c-24.686239 0-44.769646 20.083407-44.769646 44.769646 0 24.685215 20.011776 44.769646 44.769646 44.769646 24.685215 0 44.769646-20.083407 44.769647-44.769646s-20.011776-44.769646-44.769647-44.769646zM632.147404 438.888098c-8.963139-15.095813-27.927049-35.600823-57.081043-61.575404-15.059997-13.421684-37.865399-29.842679-41.491996-38.072107-3.626597-8.156774-0.384763-22.00006 0-44.769646h-44.626384c-0.143263 10.771321-0.143263 42.575678-0.143263 44.769646v44.769646c6.974855 14.576997 19.313881 21.793352 40.131 39.925315 20.853957 18.23941 33.335223 30.121018 37.409004 35.770691 6.241145 8.891508 9.44614 18.72241 9.44614 29.395494 0 14.890128-5.613858 27.613918-16.699334 38.287001-11.084453 10.565636-29.082362 20.119223-47.90301 20.119224-18.203594 0-30.469965-9.759271-42.709731-20.818142-12.239765-11.048637-22.733771-35.421744-25.24087-50.526767-2.337231-14.263865-66.348104-20.289092-65.586764 8.613169 0.806365 28.867468 14.782681 60.214407 38.805817 82.912361 24.023136 22.733771 55.576783 34.068933 94.597495 34.068933 41.071418 0 73.671906-11.506055 98.009198-34.517141 24.300452-23.011086 36.370349-49.756217 36.370349-80.33363 0.063445-16.912182-4.3951-32.957623-13.286608-48.018643z"  horiz-adv-x="1024" />

    
    <glyph glyph-name="shaixuan-copy" unicode="&#58894;" d="M793.924 605.698s-125.686-123.941-167.583-164.092c-3.492-3.492-8.726-8.726-10.474-12.219-1.745-3.492-1.745-12.219-1.745-17.457 0-78.555 1.745-307.235 1.745-307.235s0-15.712-17.457-17.457c-13.965 0-13.965 12.219-13.965 17.457v312.473c0 15.712-1.745 19.202 0 24.441 1.745 6.983 13.965 15.712 19.202 19.202 41.897 36.659 167.583 164.092 167.583 164.092 3.492 3.492 5.238 6.983 5.238 10.474 0 8.726-6.983 13.965-15.712 13.965h-501.004c-8.726 0-15.712-6.983-15.712-13.965 0-5.238 1.745-8.726 5.238-10.474 0 0 122.196-122.196 165.838-162.346 3.492-3.492 19.202-15.712 22.695-22.695 1.745-5.238 0-27.929 0-27.929v-167.583s-1.745-6.983-15.712-6.983c-12.219 0-13.965 6.983-13.965 6.983s-1.745 113.467 0 167.583c0 3.492 0 12.219-1.745 13.965-1.745 3.492-6.983 8.726-10.474 12.219-43.641 41.897-167.583 167.583-167.583 167.583-8.726 8.726-13.965 19.202-13.965 31.422 0 24.441 19.202 43.641 45.386 43.641h504.495c24.441 0 45.386-19.202 45.386-43.641-1.745-12.219-6.983-24.441-15.712-31.422z"  horiz-adv-x="1024" />

    
    <glyph glyph-name="fenlei" unicode="&#58966;" d="M1309.131709-49.765612L1099.126551 224.700293c74.478871 71.133807 121.292699 170.700658 121.292699 281.565632C1220.41925 721.118012 1045.195929 896 830.036642 896 614.621354 896 439.654034 721.118012 439.654034 506.265925c0-214.852088 175.223321-389.734075 390.382608-389.734075a389.973008 389.973008 0 0 1 190.907574 50.039425L1231.700307-108.867429A48.708226 48.708226 0 0 1 1270.663474-127.999147c10.291191 0 20.821316 3.191464 29.405843 10.052259a48.571693 48.571693 0 0 1 9.062392 68.181276z m-779.058551 556.031537c0 165.068662 134.553488 299.229617 299.963484 299.229617S1129.983058 671.334587 1129.983058 506.265925s-134.536421-299.229617-299.946416-299.229618-299.963483 134.160955-299.963484 299.229618zM341.128249 702.242295H48.776493A48.708226 48.708226 0 0 0 0 750.796921a48.708226 48.708226 0 0 0 48.776493 48.571693h292.351756a48.708226 48.708226 0 0 0 48.776493-48.571693 48.708226 48.708226 0 0 0-48.776493-48.554626z m-11.758923-480.972399H48.776493A48.708226 48.708226 0 0 0 0 269.824522a48.708226 48.708226 0 0 0 48.776493 48.571693h280.592833a48.708226 48.708226 0 0 0 48.776492-48.571693 48.708226 48.708226 0 0 0-48.776492-48.554626z m-57.582886 241.100599H48.776493A48.759426 48.759426 0 0 0 0 511.181121c0 26.965311 21.811182 48.810626 48.776493 48.810626h223.009947a48.759426 48.759426 0 0 0 48.759426-48.810626c-0.238933-26.982378-22.050115-48.810626-48.759426-48.810626z m313.924005-490.785725H48.776493A48.759426 48.759426 0 0 0 0 20.395396a48.759426 48.759426 0 0 0 48.776493 48.79356h536.933952a48.759426 48.759426 0 0 0 48.759426-48.79356 48.759426 48.759426 0 0 0-48.759426-48.810626z"  horiz-adv-x="1319" />

    
    <glyph glyph-name="xin2" unicode="&#58970;" d="M1037.132088 777.688407l2.046612 0 0-2.046612-2.046612 0 0 2.046612ZM743.943606 796.772045c9.095145-0.988514 18.226107-1.729387 27.28032-3.007497 58.055231-8.192589 107.546412-32.328289 146.738016-76.986395 31.322379-35.69292 54.815443-75.467809 67.232241-121.353882 16.981766-62.750159 10.914584-122.597199-23.768333-178.645726-27.980261-45.215808-59.163471-88.174202-91.423199-130.36614-67.36527-88.109734-138.01433-173.439144-215.957517-252.497735-26.602891-26.982538-54.003961-53.148477-85.258803-74.847685-6.17156-4.285606-12.712533-8.112772-19.35686-11.629875-17.178241-9.095145-34.503838-8.967232-51.782364-0.061398-18.053168 9.305947-33.924647 21.723767-49.285496 34.81083-37.770232 32.177863-72.143087 67.816548-105.424074 104.511285-80.818677 89.104387-156.25681 182.546569-225.189785 281.167704-16.420995 23.493064-32.82357 47.093575-45.151339 73.104995-18.205641 38.415938-23.220864 78.895885-17.513886 120.80539 7.772011 57.07081 32.782637 106.161878 69.440535 149.938917 38.944987 46.509267 88.918145 72.764234 148.432611 81.736583 7.762801 1.170662 15.642259 1.563612 23.463388 2.364861 2.258437 0.231267 4.498454 0.632403 6.747681 0.955768 6.886851 0 13.773701 0 20.660552 0 8.272407-0.997724 16.561188-1.873674 24.814152-3.012613 44.490284-6.141884 85.371366-21.129226 120.721479-49.550533 13.666254-10.987239 27.107381-22.26612 40.996716-32.964786 9.731642-7.497765 16.58063-7.402597 26.39823-0.010233 9.157567 6.897084 18.10024 14.121626 26.733874 21.664416 37.517475 32.782637 80.684624 53.209876 130.126686 60.07626 9.872858 1.37123 19.773346 2.536776 29.661553 3.797489C730.170928 796.772045 737.056756 796.772045 743.943606 796.772045zM319.099618 744.966145c-12.192693-1.39579-24.481577-2.225691-36.559661-4.287653-49.598628-8.468882-90.51348-32.054043-121.104195-72.211649-35.247782-46.272883-50.758034-98.961896-47.975664-156.887167 1.400906-29.166273 9.581216-56.428174 26.732851-80.521918 10.833743-15.219633 21.355377-30.680766 32.68747-45.521776 68.500117-89.710184 141.595902-175.600367 217.043245-259.498172 35.737946-39.74112 71.411423-79.630618 112.008027-114.604154 19.219737-16.558118 24.133653-16.622586 42.435485-0.574075 19.445888 17.052374 38.028105 35.202757 55.923684 53.893444 71.482031 74.650187 138.719388 153.060001 204.330712 232.871745 33.731242 41.032532 67.026556 82.418105 97.390098 126.058021 9.943466 14.290471 18.99461 29.051663 24.077372 45.931099 11.234879 37.306674 10.146081 74.748425 0.913812 112.136963-10.866489 44.00012-31.825846 82.3301-65.642023 113.039519-31.197536 28.330232-68.50728 42.906206-109.87955 47.930639-40.343847 4.89959-78.272691-2.229784-113.361861-23.220864-21.792329-13.035898-39.857776-30.328749-56.488549-49.244564-6.224772-7.079232-13.837146-11.870352-22.445198-15.442714-14.495132-6.014994-29.67895-6.545066-44.961004-5.635347-20.205181 1.205455-37.928844 7.838525-51.461045 23.916712-6.315846 7.503904-13.351076 14.468526-20.542872 21.158902C407.575696 726.481142 366.954533 744.194572 319.099618 744.966145zM328.311421 663.876292c-14.153348-1.476631-28.333302-2.737344-42.453904-4.483104-18.383696-2.273786-33.072233-11.443633-45.667086-24.744567-17.638729-18.629289-30.871101-40.22105-43.172265-62.492286-1.583055-2.866281-3.062755-5.788843-4.64581-8.655124-3.195785-5.782703-12.195763-9.135054-17.810644-6.667863-5.53711 2.431376-7.707542 9.491165-4.984524 16.563234 10.215666 26.532283 24.01802 50.880831 43.441395 71.873957 22.329565 24.133653 50.476625 36.852326 82.370009 42.163285 18.729573 3.119037 37.515429 3.047406 56.266491-0.064468 7.80578-1.296529 12.988826-8.946766 11.320836-16.669658-1.193175-5.52176-5.367241-8.774851-11.487635-8.581446-7.695263 0.245593-15.383362 0.724501-23.073508 1.103124C328.379982 663.440363 328.346213 663.658328 328.311421 663.876292zM421.609317 620.909711c-2.668783 1.411139-5.743818 2.368954-7.931646 4.320399-6.353708 5.66707-12.437264 11.646248-18.464537 17.665335-4.92108 4.91494-5.085832 12.281721-0.644683 16.752546 4.51585 4.545526 11.796674 4.591575 16.827247-0.116657 6.340405-5.933129 12.613272-11.943007 18.756179-18.078751 3.552919-3.548826 4.602831-7.970532 2.611477-12.666484C430.79963 624.156662 427.151543 621.656725 421.609317 620.909711z"  horiz-adv-x="1040" />

    
    <glyph glyph-name="bird" unicode="&#59225;" d="M934.517 651.18c-31.175-13.84-64.556-23.083-99.685-27.312 35.817 21.472 63.359 55.497 76.327 96.006-44.389-26.721-97.231-44.052-153.77-47.937 11.875 39.569-33.232 60.581-83.167 60.581-95.868 0-173.528-77.66-173.528-173.481 0-13.656 1.517-26.853 4.459-39.59-144.239 7.266-272.201 76.327-357.772 181.392-14.989-25.656-23.541-55.498-23.541-87.271 0-60.279 30.668-113.341 77.246-144.515-30.315 1.001-58.412 9.644-82.686 24.049l4.061-4.462c0-84.144 59.82-154.264 139.229-170.264-14.53-3.954-29.887-6.024-45.75-6.024-11.558 0.003-22.855 1.109-33.795 3.22 23.219-69.155 87.361-119.273 163.274-120.699-59.359-46.487-134.17-74.258-215.554-74.258-0.015-0-0.032-0-0.049-0-14.566 0-28.925 0.885-43.027 2.605 78.527-49.459 169.705-78.196 267.78-78.196 319.241 0 493.828 264.479 493.828 493.919 0 7.448-0.139 14.989-0.507 22.438 33.933 24.415 63.36 54.946 86.627 89.799zM671.711 539.821c-24.437 0-44.248 19.81-44.248 44.247 0 24.438 19.812 44.249 44.248 44.249 24.438 0 44.248-19.811 44.248-44.249 0-24.437-19.811-44.247-44.248-44.247z"  horiz-adv-x="1024" />

    
    <glyph glyph-name="gou1" unicode="&#59039;" d="M900.09 677.332c-14.991 14.993-39.28 14.993-54.271 0l-471.9-471.824-164.695 164.697c-14.993 14.991-39.28 14.991-54.274 0-14.993-14.992-14.993-39.28 0-54.273L346.782 124.1c7.498-7.497 17.318-11.245 27.138-11.245s19.64 3.748 27.138 11.243L900.09 623.059c14.992 14.992 14.992 39.28 0 54.273z"  horiz-adv-x="1024" />

    
    </font>
</defs>
</svg>
